<?xml version="1.0" standalone="no"?><!DOCTYPE svg PUBLIC "-//W3C//DTD SVG 1.1//EN" "http://www.w3.org/Graphics/SVG/1.1/DTD/svg11.dtd"><svg height="800" node-id="1" sillyvg="true" template-height="800" template-width="800" version="1.1" viewBox="0 0 800 800" width="800" xmlns="http://www.w3.org/2000/svg" xmlns:xlink="http://www.w3.org/1999/xlink"><defs node-id="153"><linearGradient gradientUnits="userSpaceOnUse" id="SVGID_1_" node-id="17" spreadMethod="pad" x1="400.838" x2="400.838" y1="159.9239" y2="715.4155"><stop offset="0.00000009590021" stop-color="#f4f2fb"></stop><stop offset="1" stop-color="#e1eef5"></stop></linearGradient><linearGradient gradientUnits="userSpaceOnUse" id="SVGID_2_" node-id="22" spreadMethod="pad" x1="115.9198" x2="115.9198" y1="540.3102" y2="403.1357"><stop offset="0.2267" stop-color="#b7ace0"></stop><stop offset="0.7893" stop-color="#e8e7fa"></stop></linearGradient><linearGradient gradientUnits="userSpaceOnUse" id="SVGID_3_" node-id="27" spreadMethod="pad" x1="115.9217" x2="115.9217" y1="418.3674" y2="569.5007"><stop offset="0" stop-color="#ecf1fb"></stop><stop offset="0.818" stop-color="#afb0e7"></stop></linearGradient><linearGradient gradientUnits="userSpaceOnUse" id="SVGID_4_" node-id="32" spreadMethod="pad" x1="617.0486" x2="617.0486" y1="448.7883" y2="360.4638"><stop offset="0.2267" stop-color="#ccd4f4"></stop><stop offset="0.7893" stop-color="#ecf1fb"></stop></linearGradient><linearGradient gradientUnits="userSpaceOnUse" id="SVGID_5_" node-id="37" spreadMethod="pad" x1="617.0499" x2="617.0499" y1="370.2712" y2="467.5836"><stop offset="0" stop-color="#ecf1fb"></stop><stop offset="1" stop-color="#a6a8e2"></stop></linearGradient><linearGradient gradientUnits="userSpaceOnUse" id="SVGID_6_" node-id="41" spreadMethod="pad" x1="462.9667" x2="428.2125" y1="86.1817" y2="146.3778"><stop offset="0" stop-color="#ffdb80"></stop><stop offset="1" stop-color="#ffbb24"></stop></linearGradient><linearGradient gradientUnits="userSpaceOnUse" id="SVGID_7_" node-id="45" spreadMethod="pad" x1="420.6296" x2="420.6296" y1="116.6479" y2="174.1018"><stop offset="0" stop-color="#f9fafe"></stop><stop offset="1" stop-color="#e5edf7"></stop></linearGradient><linearGradient gradientUnits="userSpaceOnUse" id="SVGID_8_" node-id="50" spreadMethod="pad" x1="687.6509" x2="687.6509" y1="538.0284" y2="510.2002"><stop offset="0.2267" stop-color="#afb0e7"></stop><stop offset="1" stop-color="#ecf1fb"></stop></linearGradient><linearGradient gradientUnits="userSpaceOnUse" id="SVGID_9_" node-id="54" spreadMethod="pad" x1="687.7" x2="687.7" y1="513.7139" y2="558.5098"><stop offset="0.00000009590021" stop-color="#dde1f6"></stop><stop offset="0.818" stop-color="#a6a8e2"></stop></linearGradient><linearGradient gradientUnits="userSpaceOnUse" id="SVGID_10_" node-id="58" spreadMethod="pad" x1="462.1451" x2="462.1451" y1="666.8778" y2="370.6324"><stop offset="0" stop-color="#cdd5ed"></stop><stop offset="0.8657" stop-color="#eaf0f8"></stop></linearGradient><linearGradient gradientUnits="userSpaceOnUse" id="SVGID_11_" node-id="63" spreadMethod="pad" x1="332.6906" x2="476.8555" y1="214.9346" y2="359.0995"><stop offset="0.1157" stop-color="#dee4ff"></stop><stop offset="0.8472" stop-color="#c6d5f4"></stop></linearGradient><linearGradient gradientUnits="userSpaceOnUse" id="SVGID_12_" node-id="67" spreadMethod="pad" x1="453.9391" x2="453.9391" y1="536.7361" y2="219.5179"><stop offset="0" stop-color="#c8cbf2"></stop><stop offset="1" stop-color="#afb0e7"></stop></linearGradient><linearGradient gradientUnits="userSpaceOnUse" id="SVGID_13_" node-id="71" spreadMethod="pad" x1="372.7423" x2="311.082" y1="523.2007" y2="461.5404"><stop offset="0" stop-color="#c8cbf2"></stop><stop offset="1" stop-color="#afb0e7"></stop></linearGradient><linearGradient gradientUnits="userSpaceOnUse" id="SVGID_14_" node-id="75" spreadMethod="pad" x1="330.8851" x2="616.4371" y1="370.6271" y2="370.6271"><stop offset="0.1157" stop-color="#dee4ff"></stop><stop offset="0.8472" stop-color="#c6d5f4"></stop></linearGradient><linearGradient gradientUnits="userSpaceOnUse" id="SVGID_15_" node-id="79" spreadMethod="pad" x1="435.0504" x2="201.9978" y1="578.6801" y2="345.6275"><stop offset="0.1157" stop-color="#dee4ff"></stop><stop offset="0.8472" stop-color="#bacbee"></stop></linearGradient><linearGradient gradientUnits="userSpaceOnUse" id="SVGID_16_" node-id="83" spreadMethod="pad" x1="632.2975" x2="457.8007" y1="228.675" y2="530.9124"><stop offset="0" stop-color="#c8cbf2"></stop><stop offset="1" stop-color="#afb0e7"></stop></linearGradient><linearGradient gradientUnits="userSpaceOnUse" id="SVGID_17_" node-id="87" spreadMethod="pad" x1="348.643" x2="249.7933" y1="548.123" y2="449.2733"><stop offset="0.1157" stop-color="#dee4ff"></stop><stop offset="0.8472" stop-color="#bacbee"></stop></linearGradient><linearGradient gradientUnits="userSpaceOnUse" id="SVGID_18_" node-id="92" spreadMethod="pad" x1="334.0257" x2="334.0257" y1="307.0537" y2="231.6043"><stop offset="0" stop-color="#c3d5fd"></stop><stop offset="1" stop-color="#1a90fc"></stop></linearGradient><linearGradient gradientUnits="userSpaceOnUse" id="SVGID_19_" node-id="96" spreadMethod="pad" x1="335.0429" x2="335.0429" y1="218.7364" y2="242.6382"><stop offset="0" stop-color="#f4ae98"></stop><stop offset="1" stop-color="#fad1bb"></stop></linearGradient><linearGradient gradientTransform="matrix(0.9901 -0.1406 0.1406 0.9901 1075.1221 146.8214)" gradientUnits="userSpaceOnUse" id="SVGID_20_" node-id="100" spreadMethod="pad" x1="-781.202" x2="-769.5195" y1="61.2648" y2="-20.9928"><stop offset="0" stop-color="#c3d5fd"></stop><stop offset="1" stop-color="#1a90fc"></stop></linearGradient><linearGradient gradientTransform="matrix(-0.9901 -0.1406 -0.1406 0.9901 2313.353 146.8214)" gradientUnits="userSpaceOnUse" id="SVGID_21_" node-id="104" spreadMethod="pad" x1="1913.6663" x2="1925.3489" y1="443.9996" y2="361.7419"><stop offset="0" stop-color="#c3d5fd"></stop><stop offset="1" stop-color="#1a90fc"></stop></linearGradient><linearGradient gradientUnits="userSpaceOnUse" id="SVGID_22_" node-id="108" spreadMethod="pad" x1="334.0257" x2="334.0257" y1="279.8058" y2="327.7528"><stop offset="0" stop-color="#275c89"></stop><stop offset="1" stop-color="#013f7c"></stop></linearGradient><linearGradient gradientUnits="userSpaceOnUse" id="SVGID_23_" node-id="114" spreadMethod="pad" x1="-2919.0232" x2="-2935.526" y1="348.4454" y2="348.4454"><stop offset="0" stop-color="#f4b9a4"></stop><stop offset="0.652" stop-color="#fad1bb"></stop></linearGradient><linearGradient gradientUnits="userSpaceOnUse" id="SVGID_24_" node-id="118" spreadMethod="pad" x1="311.6501" x2="396.7841" y1="329.7375" y2="329.7375"><stop offset="0" stop-color="#18264b"></stop><stop offset="0.652" stop-color="#2d3c65"></stop></linearGradient><linearGradient gradientUnits="userSpaceOnUse" id="SVGID_25_" node-id="122" spreadMethod="pad" x1="292.4546" x2="292.4546" y1="340.1994" y2="358.2173"><stop offset="0" stop-color="#ffdb80"></stop><stop offset="1" stop-color="#ffbb24"></stop></linearGradient><linearGradient gradientUnits="userSpaceOnUse" id="SVGID_26_" node-id="128" spreadMethod="pad" x1="352.7823" x2="369.285" y1="348.4454" y2="348.4454"><stop offset="0" stop-color="#f4b9a4"></stop><stop offset="0.652" stop-color="#fad1bb"></stop></linearGradient><linearGradient gradientUnits="userSpaceOnUse" id="SVGID_27_" node-id="132" spreadMethod="pad" x1="274.3952" x2="359.5292" y1="329.7375" y2="329.7375"><stop offset="0" stop-color="#445677"></stop><stop offset="1" stop-color="#293861"></stop></linearGradient><linearGradient gradientUnits="userSpaceOnUse" id="SVGID_28_" node-id="136" spreadMethod="pad" x1="378.7248" x2="378.7248" y1="340.1994" y2="358.2173"><stop offset="0" stop-color="#ffdb80"></stop><stop offset="1" stop-color="#ffbb24"></stop></linearGradient><linearGradient gradientUnits="userSpaceOnUse" id="SVGID_29_" node-id="140" spreadMethod="pad" x1="350.253" x2="319.8834" y1="213.2537" y2="213.2537"><stop offset="0" stop-color="#f4b9a4"></stop><stop offset="0.652" stop-color="#fad1bb"></stop></linearGradient><linearGradient gradientUnits="userSpaceOnUse" id="SVGID_30_" node-id="144" spreadMethod="pad" x1="315.7039" x2="350.963" y1="201.1794" y2="201.1794"><stop offset="0" stop-color="#4f5c7c"></stop><stop offset="1" stop-color="#274168"></stop></linearGradient></defs><g node-id="432"><g node-id="433"><path d="M 484.10 201.28 C 445.73 231.57 363.36 235.09 302.93 199.06 C 242.50 163.03 130.93 167.68 100.71 233.93 C 70.49 300.18 137.90 365.26 113.49 412.91 C 89.08 460.56 7.73 527.95 63.51 609.31 C 119.29 690.67 190.11 669.93 232.73 661.76 C 316.90 645.63 422.52 777.43 541.35 677.89 C 609.82 620.54 711.79 719.98 751.52 596.53 C 784.30 494.67 665.85 457.03 701.55 388.50 C 739.51 315.62 732.22 229.26 691.09 187.44 C 652.78 148.48 550.34 148.98 484.10 201.28 Z" fill="url(#SVGID_1_)" fill-rule="nonzero" group-id="1,2" node-id="341" stroke="none" target-height="628.95" target-width="776.57" target-x="7.73" target-y="148.48"></path><g node-id="436"><path d="M 116.70 403.38 C 116.70 403.38 116.48 402.81 116.18 403.42 C 113.48 408.91 89.03 468.38 87.09 514.28 C 87.09 514.28 83.01 540.65 117.20 540.30 C 145.74 540.01 144.98 515.70 144.88 507.51 C 144.50 474.29 116.70 403.38 116.70 403.38 Z" fill="url(#SVGID_2_)" fill-rule="nonzero" group-id="1,2,5" node-id="345" stroke="none" target-height="137.84003" target-width="62.730003" target-x="83.01" target-y="402.81"></path><g node-id="441"><path d="M 115.92 569.50 C 115.37 569.50 114.92 569.05 114.92 568.50 L 114.92 419.37 C 114.92 418.82 115.37 418.37 115.92 418.37 C 116.47 418.37 116.92 418.82 116.92 419.37 L 116.92 568.50 C 116.92 569.05 116.47 569.50 115.92 569.50 Z" fill="url(#SVGID_3_)" fill-rule="nonzero" group-id="1,2,5,10" node-id="349" stroke="none" target-height="151.13" target-width="2" target-x="114.92" target-y="418.37"></path></g></g><g node-id="437"><path d="M 617.55 360.62 C 617.55 360.62 617.41 360.25 617.22 360.65 C 615.48 364.18 599.74 402.48 598.49 432.03 C 598.49 432.03 595.86 449.01 617.88 448.79 C 636.26 448.61 635.77 432.95 635.70 427.68 C 635.45 406.28 617.55 360.62 617.55 360.62 Z" fill="url(#SVGID_4_)" fill-rule="nonzero" group-id="1,2,6" node-id="355" stroke="none" target-height="88.76001" target-width="40.400024" target-x="595.86" target-y="360.25"></path><g node-id="442"><path d="M 617.05 467.58 C 616.69 467.58 616.41 467.29 616.41 466.94 L 616.41 370.92 C 616.41 370.56 616.70 370.28 617.05 370.28 C 617.40 370.28 617.69 370.57 617.69 370.92 L 617.69 466.94 C 617.69 467.30 617.41 467.58 617.05 467.58 Z" fill="url(#SVGID_5_)" fill-rule="nonzero" group-id="1,2,6,11" node-id="359" stroke="none" target-height="97.29999" target-width="1.2800293" target-x="616.41" target-y="370.28"></path></g></g><path d="M 480.34 116.28 C 480.34 135.47 464.78 151.03 445.59 151.03 C 426.40 151.03 410.84 135.47 410.84 116.28 C 410.84 97.09 426.40 81.53 445.59 81.53 C 464.78 81.53 480.34 97.09 480.34 116.28 Z" fill="url(#SVGID_6_)" fill-rule="nonzero" group-id="1,2" node-id="363" stroke="none" target-height="69.5" target-width="69.5" target-x="410.84" target-y="81.53"></path><path d="M 465.37 135.23 L 430.80 135.23 C 428.57 124.62 419.15 116.65 407.87 116.65 C 396.59 116.65 387.18 124.62 384.94 135.23 L 375.89 135.23 C 365.16 135.23 356.45 143.93 356.45 154.67 L 356.45 154.67 C 356.45 165.40 365.15 174.11 375.89 174.11 L 465.36 174.11 C 476.09 174.11 484.80 165.41 484.80 154.67 L 484.80 154.67 C 484.80 143.93 476.10 135.23 465.37 135.23 Z" fill="url(#SVGID_7_)" fill-rule="nonzero" group-id="1,2" node-id="365" stroke="none" target-height="57.46" target-width="128.34998" target-x="356.45" target-y="116.65"></path><path d="M 701.56 524.11 C 701.56 531.79 695.33 538.02 687.65 538.02 C 679.97 538.02 673.74 531.79 673.74 524.11 C 673.74 516.43 679.97 510.20 687.65 510.20 C 695.33 510.20 701.56 516.43 701.56 524.11 Z" fill="url(#SVGID_8_)" fill-rule="nonzero" group-id="1,2,7" node-id="369" stroke="none" target-height="27.820007" target-width="27.820007" target-x="673.74" target-y="510.2"></path><path d="M 687.70 558.51 C 687.46 558.51 687.27 558.32 687.27 558.08 L 687.27 514.14 C 687.27 513.90 687.46 513.71 687.70 513.71 C 687.94 513.71 688.13 513.90 688.13 514.14 L 688.13 558.08 C 688.13 558.32 687.94 558.51 687.70 558.51 Z" fill="url(#SVGID_9_)" fill-rule="nonzero" group-id="1,2,7" node-id="371" stroke="none" target-height="44.799988" target-width="0.85998535" target-x="687.27" target-y="513.71"></path></g><path d="M 383.85 540.69 L 594.33 370.63 L 465.35 638.98 L 349.62 666.88 L 329.96 615.20 Z" fill="url(#SVGID_10_)" fill-rule="nonzero" group-id="1" node-id="375" stroke="none" target-height="296.25" target-width="264.37003" target-x="329.96" target-y="370.63"></path><path d="M 193.11 354.52 L 616.44 219.52 L 291.44 412.85 Z" fill="url(#SVGID_11_)" fill-rule="nonzero" group-id="1,3" node-id="379" stroke="none" target-height="193.33" target-width="423.33002" target-x="193.11" target-y="219.52"></path><path d="M 291.44 412.85 L 325.89 536.74 L 616.44 219.52 Z" fill="url(#SVGID_12_)" fill-rule="nonzero" group-id="1,3" node-id="381" stroke="none" target-height="317.21997" target-width="325" target-x="291.44" target-y="219.52"></path><path d="M 330.89 441.74 L 339.59 556.35 L 395.28 479.43 Z" fill="url(#SVGID_13_)" fill-rule="nonzero" group-id="1,3" node-id="383" stroke="none" target-height="114.609985" target-width="64.389984" target-x="330.89" target-y="441.74"></path><path d="M 467.55 521.74 L 330.89 441.74 L 616.44 219.52 Z" fill="url(#SVGID_14_)" fill-rule="nonzero" group-id="1,3" node-id="385" stroke="none" target-height="302.21997" target-width="285.55" target-x="330.89" target-y="219.52"></path><path d="M 467.55 521.74 L 330.89 441.74 L 325.89 536.74 L 291.44 412.85 L 193.11 354.52 L 193.11 368.96 L 279.59 422.29 L 315.51 548.59 L 339.59 556.35 L 343.29 463.77 L 473.66 540.07 Z" fill="url(#SVGID_15_)" fill-rule="nonzero" group-id="1,3" node-id="387" stroke="none" target-height="201.82999" target-width="280.55" target-x="193.11" target-y="354.52"></path><path d="M 473.66 540.07 L 618.84 236.37 L 616.44 219.52 L 467.55 521.74 Z" fill="url(#SVGID_16_)" fill-rule="nonzero" group-id="1,3" node-id="389" stroke="none" target-height="320.55" target-width="151.29004" target-x="467.55" target-y="219.52"></path><path d="M 207.70 597.55 C 187.90 597.55 171.13 593.96 163.39 583.77 C 154.76 572.41 158.30 554.46 173.90 530.42 C 217.56 463.13 270.37 470.94 316.97 477.83 C 347.86 482.40 377.03 486.71 398.88 467.72 C 413.65 454.88 420.85 440.81 420.28 425.90 C 419.15 396.43 388.05 373.00 387.74 372.77 C 386.85 372.11 386.67 370.86 387.33 369.97 C 387.99 369.08 389.24 368.90 390.13 369.56 C 391.47 370.56 423.08 394.38 424.29 425.75 C 424.91 441.93 417.25 457.07 401.52 470.74 C 378.28 490.94 348.22 486.49 316.40 481.79 C 271.00 475.08 219.54 467.47 177.27 532.60 C 162.68 555.08 159.09 571.49 166.59 581.36 C 190.56 612.91 316.84 573.74 318.11 573.34 C 319.16 573.01 320.29 573.60 320.62 574.65 C 320.95 575.70 320.36 576.83 319.31 577.16 C 315.59 578.31 253.54 597.55 207.70 597.55 Z" fill="url(#SVGID_17_)" fill-rule="nonzero" group-id="1,3" node-id="391" stroke="none" target-height="244.00998" target-width="270.15002" target-x="154.76" target-y="368.9"></path><path d="M 326.46 231.96 C 326.46 231.96 308.66 229.43 302.88 237.84 C 297.10 246.25 294.98 267.79 294.98 267.79 L 308.38 267.06 L 307.25 292.15 L 331.97 307.05 L 367.18 287.57 L 361.82 264.84 L 373.07 261.82 C 373.07 261.82 369.72 228.83 354.07 233.70 C 346.03 234.59 343.49 234.44 343.49 234.44 C 343.49 234.44 341.37 241.38 334.11 240.79 C 326.85 240.20 326.46 231.96 326.46 231.96 Z" fill="url(#SVGID_18_)" fill-rule="nonzero" group-id="1,4" node-id="396" stroke="none" target-height="78.219986" target-width="78.09" target-x="294.98" target-y="228.83"></path><path d="M 328.23 221.59 L 324.53 238.56 C 324.36 239.36 324.76 240.17 325.50 240.48 C 327.41 241.28 331.24 242.64 335.17 242.64 C 339.25 242.64 343.10 240.34 344.87 239.11 C 345.48 238.69 345.74 237.90 345.50 237.18 L 339.84 219.87 C 339.58 219.08 338.80 218.61 338.01 218.75 L 329.53 220.30 C 328.89 220.43 328.38 220.93 328.23 221.59 Z" fill="url(#SVGID_19_)" fill-rule="nonzero" group-id="1,4" node-id="398" stroke="none" target-height="24.029999" target-width="21.380005" target-x="324.36" target-y="218.61"></path><path d="M 306.13 234.90 C 311.31 233.13 318.33 234.31 318.62 246.27 C 318.91 258.22 307.52 277.27 311.60 283.90 C 315.73 290.61 324.57 300.15 330.19 305.58 C 328.88 311.96 325.35 317.33 325.35 317.33 C 325.35 317.33 304.63 307.50 295.61 297.65 C 286.59 287.80 291.14 265.22 295.32 249.15 C 298.48 237.03 306.13 234.90 306.13 234.90 Z" fill="url(#SVGID_20_)" fill-rule="nonzero" group-id="1,4" node-id="400" stroke="none" target-height="84.19998" target-width="43.600006" target-x="286.59" target-y="233.13"></path><path d="M 360.43 234.90 C 355.25 233.13 348.23 234.31 347.94 246.27 C 347.65 258.23 359.04 277.27 354.96 283.90 C 350.83 290.61 341.99 300.15 336.37 305.58 C 337.68 311.96 341.21 317.33 341.21 317.33 C 341.21 317.33 361.93 307.50 370.95 297.65 C 379.97 287.80 375.42 265.22 371.24 249.15 C 368.09 237.03 360.43 234.90 360.43 234.90 Z" fill="url(#SVGID_21_)" fill-rule="nonzero" group-id="1,4" node-id="402" stroke="none" target-height="84.19998" target-width="43.600006" target-x="336.37" target-y="233.13"></path><path d="M 308.65 327.75 L 358.95 327.75 C 361.23 327.75 363.26 325.97 364.05 323.30 L 374.19 288.99 C 375.51 284.54 372.88 279.80 369.09 279.80 L 298.97 279.80 C 295.21 279.80 292.59 284.45 293.84 288.89 L 303.52 323.20 C 304.29 325.93 306.34 327.75 308.65 327.75 Z" fill="url(#SVGID_22_)" fill-rule="nonzero" group-id="1,4" node-id="404" stroke="none" target-height="47.950012" target-width="82.92001" target-x="292.59" target-y="279.8"></path><path d="M 306.64 343.53 C 306.64 343.53 305.86 341.77 305.27 341.58 C 304.68 341.39 296.07 341.04 292.93 340.20 C 289.79 339.36 280.74 338.04 276.87 341.81 C 273.49 345.10 272.38 352.78 277.52 357.20 C 279.45 358.92 281.35 359.43 288.49 359.09 C 295.63 358.75 305.99 358.82 308.26 355.42 C 308.18 349.79 306.64 343.53 306.64 343.53 Z" fill="#ffffff" fill-rule="nonzero" group-id="1,4,8" node-id="408" stroke="none" target-height="21.389984" target-width="35.880005" target-x="272.38" target-y="338.04"></path><path d="M 314.62 341.58 C 314.62 341.58 306.31 343.50 303.35 343.22 C 300.38 342.94 302.86 355.24 302.86 355.24 C 302.86 355.24 310.79 355.80 317.80 353.72 C 320.18 344.29 314.62 341.58 314.62 341.58 Z" fill="url(#SVGID_23_)" fill-rule="nonzero" group-id="1,4,8" node-id="410" stroke="none" target-height="14.220001" target-width="19.799988" target-x="300.38" target-y="341.58"></path><path d="M 311.65 341.13 L 315.97 354.94 C 315.97 354.94 408.75 342.37 395.49 311.40 C 384.40 285.52 311.65 341.13 311.65 341.13 Z" fill="url(#SVGID_24_)" fill-rule="nonzero" group-id="1,4,8" node-id="412" stroke="none" target-height="69.42001" target-width="97.100006" target-x="311.65" target-y="285.52"></path><path d="M 305.56 342.20 C 305.56 342.20 308.96 343.57 309.39 348.44 C 309.82 353.32 308.42 356.59 301.19 357.49 C 293.96 358.39 292.13 358.05 287.60 358.17 C 283.07 358.28 276.49 358.73 275.52 349.87 C 274.55 341.01 283.36 338.75 292.49 341.01 C 295.37 341.58 305.56 342.20 305.56 342.20 Z" fill="url(#SVGID_25_)" fill-rule="nonzero" group-id="1,4,8" node-id="414" stroke="none" target-height="19.980011" target-width="35.27002" target-x="274.55" target-y="338.75"></path><path d="M 364.54 343.53 C 364.54 343.53 365.32 341.77 365.91 341.58 C 366.50 341.39 375.11 341.04 378.25 340.20 C 381.39 339.36 389.82 337.97 394.08 341.71 C 398.03 345.18 398.29 352.85 393.79 357.08 C 391.86 358.80 389.83 359.43 382.69 359.09 C 375.55 358.75 365.19 358.82 362.92 355.42 C 363.00 349.79 364.54 343.53 364.54 343.53 Z" fill="#ffffff" fill-rule="nonzero" group-id="1,4,9" node-id="419" stroke="none" target-height="21.459991" target-width="35.369995" target-x="362.92" target-y="337.97"></path><path d="M 356.55 341.58 C 356.55 341.58 364.86 343.50 367.82 343.22 C 370.79 342.94 368.31 355.24 368.31 355.24 C 368.31 355.24 360.38 355.80 353.37 353.72 C 351.00 344.29 356.55 341.58 356.55 341.58 Z" fill="url(#SVGID_26_)" fill-rule="nonzero" group-id="1,4,9" node-id="421" stroke="none" target-height="14.220001" target-width="19.790009" target-x="351" target-y="341.58"></path><path d="M 359.53 341.13 L 355.21 354.94 C 355.21 354.94 262.43 342.37 275.69 311.40 C 286.78 285.52 359.53 341.13 359.53 341.13 Z" fill="url(#SVGID_27_)" fill-rule="nonzero" group-id="1,4,9" node-id="423" stroke="none" target-height="69.42001" target-width="97.100006" target-x="262.43" target-y="285.52"></path><path d="M 365.62 342.20 C 365.62 342.20 362.22 343.57 361.79 348.44 C 361.36 353.32 362.76 356.59 369.99 357.49 C 377.22 358.39 379.05 358.05 383.58 358.17 C 388.11 358.28 394.69 358.73 395.66 349.87 C 396.63 341.01 387.82 338.75 378.69 341.01 C 375.81 341.58 365.62 342.20 365.62 342.20 Z" fill="url(#SVGID_28_)" fill-rule="nonzero" group-id="1,4,9" node-id="425" stroke="none" target-height="19.980011" target-width="35.27002" target-x="361.36" target-y="338.75"></path><path d="M 349.60 214.81 C 350.15 214.00 350.50 211.93 350.05 211.33 C 349.24 210.65 348.46 211.04 347.88 211.63 C 348.01 206.69 347.58 202.58 347.48 201.54 C 347.18 198.51 344.18 192.96 334.39 192.96 C 324.60 192.96 322.70 200.23 322.70 200.23 C 322.70 200.23 322.06 205.37 322.25 211.61 C 321.67 211.04 320.90 210.66 320.10 211.33 C 319.65 211.94 320.00 214.01 320.55 214.81 C 321.10 215.62 321.45 217.54 321.55 218.60 C 321.64 219.61 320.94 222.29 323.52 221.95 C 325.06 228.28 331.29 233.56 335.15 233.56 C 339.38 233.56 345.00 228.24 346.60 221.94 C 349.23 222.31 348.52 219.61 348.61 218.59 C 348.70 217.53 349.05 215.61 349.60 214.81 Z" fill="url(#SVGID_29_)" fill-rule="nonzero" group-id="1,4" node-id="428" stroke="none" target-height="40.59999" target-width="30.850006" target-x="319.65" target-y="192.96"></path><path d="M 341.44 190.79 C 341.44 190.79 339.53 184.60 332.20 186.08 C 324.87 187.56 324.38 191.12 321.50 191.26 C 316.59 191.50 312.67 197.79 318.96 204.45 C 321.76 207.42 319.39 208.69 320.73 211.32 C 322.06 213.95 322.05 216.50 322.05 216.50 C 322.05 216.50 324.39 208.81 322.85 205.53 C 322.05 203.84 325.58 203.38 329.98 203.78 C 334.38 204.18 341.31 202.69 341.86 199.61 C 343.16 205.92 344.46 206.58 346.11 207.54 C 347.76 208.50 347.86 216.12 347.86 216.12 C 347.86 216.12 348.15 210.52 349.30 209.25 C 350.25 207.18 352.10 199.05 350.01 197.08 C 347.92 195.11 349.67 188.79 341.44 190.79 Z" fill="url(#SVGID_30_)" fill-rule="nonzero" group-id="1,4" node-id="430" stroke="none" target-height="31.899994" target-width="39.429993" target-x="312.67" target-y="184.6"></path></g></svg>