<?xml version="1.0" standalone="no"?><!DOCTYPE svg PUBLIC "-//W3C//DTD SVG 1.1//EN" "http://www.w3.org/Graphics/SVG/1.1/DTD/svg11.dtd"><svg t="1706498949243" class="icon" viewBox="0 0 1037 1024" version="1.1" xmlns="http://www.w3.org/2000/svg" p-id="1606" xmlns:xlink="http://www.w3.org/1999/xlink" width="202.5390625" height="200"><path d="M307.573 235.562a187.13 187.13 0 1 0 374.259 0 187.13 187.13 0 1 0-374.258 0z" p-id="1607"></path><path d="M775.638 887.836h103.397a41.514 41.514 0 0 0 40.642-49.983L841.23 461.077a41.514 41.514 0 0 0-40.642-33.045h-217.31l-78.155 164.214-77.949-164.214H210.902a41.514 41.514 0 0 0-40.641 33.045L91.814 837.853a41.514 41.514 0 0 0 40.642 49.969h103.493V631.199h539.69v256.623z m-548.255 48.1h556.032l-12.938 53.47h-530.17z" p-id="1608"></path></svg>