<svg xmlns="http://www.w3.org/2000/svg" xmlns:xlink="http://www.w3.org/1999/xlink" fill="none" version="1.1" width="20" height="20" viewBox="0 0 20 20"><g><g><path d="M4,9.5L15.2075,9.5Q15.2814,9.5,15.3539,9.514410999999999Q15.4263,9.528822,15.4946,9.55709Q15.5628,9.585359,15.6242,9.626398Q15.6856,9.667437,15.7379,9.71967Q15.7901,9.771903,15.8311,9.833322Q15.8722,9.894742,15.9005,9.962987Q15.9287,10.031233,15.9431,10.103682Q15.9575,10.1761315,15.9575,10.25Q15.9575,10.3238685,15.9431,10.396318Q15.9287,10.468767,15.9005,10.537013Q15.8722,10.605258,15.8311,10.666678Q15.7901,10.728097,15.7379,10.78033Q15.6856,10.832563,15.6242,10.873602Q15.5628,10.914641,15.4946,10.94291Q15.4263,10.971178,15.3539,10.985589000000001Q15.2814,11,15.2075,11L4,11Q3.9261315,11,3.853682,10.985589000000001Q3.781233,10.971178,3.712987,10.94291Q3.644742,10.914641,3.583322,10.873602Q3.521903,10.832563,3.46967,10.78033Q3.417437,10.728097,3.376398,10.666678Q3.335359,10.605258,3.30709,10.537013Q3.278822,10.468767,3.264411,10.396318Q3.25,10.3238685,3.25,10.25Q3.25,10.1761315,3.264411,10.103682Q3.278822,10.031233,3.30709,9.962987Q3.335359,9.894742,3.376398,9.833322Q3.417437,9.771903,3.46967,9.71967Q3.521903,9.667437,3.583322,9.626398Q3.644742,9.585359,3.712987,9.55709Q3.781233,9.528822,3.853682,9.514410999999999Q3.9261315,9.5,4,9.5Z" fill-rule="evenodd" fill="#8F959E" fill-opacity="1"/></g><g transform="matrix(0,1,-1,0,14.84423828125,-4.84423828125)"><path d="M9.84423828125,4.25L20.84423828125,4.25Q20.918138281250002,4.25,20.99053828125,4.264411Q21.06303828125,4.278822,21.13123828125,4.30709Q21.19953828125,4.335359,21.26093828125,4.376398Q21.322338281249998,4.417437,21.37453828125,4.46967Q21.42683828125,4.521903,21.46783828125,4.583322Q21.50883828125,4.644742,21.53713828125,4.712987Q21.56543828125,4.781233,21.579838281249998,4.853682Q21.59423828125,4.9261315,21.59423828125,5Q21.59423828125,5.0738685,21.579838281249998,5.146318Q21.56543828125,5.218767,21.53713828125,5.287013Q21.50883828125,5.355258,21.46783828125,5.416678Q21.42683828125,5.478097,21.37453828125,5.53033Q21.322338281249998,5.582563,21.26093828125,5.623602Q21.19953828125,5.664641,21.13123828125,5.69291Q21.06303828125,5.721178,20.99053828125,5.735589Q20.918138281250002,5.75,20.84423828125,5.75L9.84423828125,5.75Q9.77036978125,5.75,9.69792028125,5.735589Q9.62547128125,5.721178,9.55722528125,5.69291Q9.48898028125,5.664641,9.42756028125,5.623602Q9.36614128125,5.582563,9.31390828125,5.53033Q9.26167528125,5.478097,9.22063628125,5.416678Q9.17959728125,5.355258,9.15132828125,5.287013Q9.12306028125,5.218767,9.108649281249999,5.146318Q9.09423828125,5.0738685,9.09423828125,5Q9.09423828125,4.9261315,9.108649281249999,4.853682Q9.12306028125,4.781233,9.15132828125,4.712987Q9.17959728125,4.644742,9.22063628125,4.583322Q9.26167528125,4.521903,9.31390828125,4.46967Q9.36614128125,4.417437,9.42756028125,4.376398Q9.48898028125,4.335359,9.55722528125,4.30709Q9.62547128125,4.278822,9.69792028125,4.264411Q9.77036978125,4.25,9.84423828125,4.25Z" fill-rule="evenodd" fill="#8F959E" fill-opacity="1"/></g></g></svg>