<svg xmlns="http://www.w3.org/2000/svg" xmlns:xlink="http://www.w3.org/1999/xlink" fill="none" version="1.1" width="18.51171875" height="18.486572265625" viewBox="0 0 18.51171875 18.486572265625"><defs><clipPath id="master_svg0_53_65003"><rect x="0" y="0" width="18.51207733154297" height="18.486486434936523" rx="0"/></clipPath></defs><g><g clip-path="url(#master_svg0_53_65003)"><g><path d="M15.3414953125,8.376671015625L10.1349753125,8.376671015625L10.1349753125,3.177345015625C10.1349753125,2.698760015625,9.7464753125,2.310791015625,9.267225312499999,2.310791015625C8.7879753125,2.310791015625,8.3994753125,2.698760015625,8.3994753125,3.177345015625L8.3994753125,8.376671015625L3.1929493125,8.376671015625C2.7137023125,8.376671015625,2.3251953125,8.764641015625,2.3251953125,9.243221015625C2.3251953125,9.721811015625,2.7137023125,10.109781015625,3.1929493125,10.109781015625L8.3994753125,10.109781015625L8.3994753125,15.309091015625C8.3994753125,15.787691015625,8.7879753125,16.175691015625,9.267225312499999,16.175691015625C9.7464753125,16.175691015625,10.1349753125,15.787691015625,10.1349753125,15.309091015625L10.1349753125,10.109781015625L15.3414953125,10.109781015625C15.8207953125,10.109781015625,16.2092953125,9.721811015625,16.2092953125,9.243221015625C16.2092953125,8.764641015625,15.8207953125,8.376671015625,15.3414953125,8.376671015625Z" fill="#3686FF" fill-opacity="1" style="mix-blend-mode:passthrough"/></g></g></g></svg>