<svg xmlns="http://www.w3.org/2000/svg" xmlns:xlink="http://www.w3.org/1999/xlink" fill="none" version="1.1" width="14" height="14" viewBox="0 0 14 14"><defs><clipPath id="master_svg0_53_81913"><rect x="0" y="0" width="14" height="14" rx="0"/></clipPath></defs><g><g clip-path="url(#master_svg0_53_81913)"><g><path d="M9.625,5.25L9.625,12.25L2.625,12.25L2.625,5.25L9.625,5.25ZM10.0625,4.375L2.1875,4.375C1.945875,4.375,1.75,4.570875,1.75,4.8125L1.75,12.6875C1.75,12.92913,1.945875,13.125,2.1875,13.125L10.0625,13.125C10.30413,13.125,10.5,12.92913,10.5,12.6875L10.5,4.8125C10.5,4.570875,10.30413,4.375,10.0625,4.375Z" fill="#3686FF" fill-opacity="1" style="mix-blend-mode:passthrough"/></g><g><path d="M4.8125,7L7.4375,7Q7.875,7,7.875,7.4375Q7.875,7.875,7.4375,7.875L4.8125,7.875Q4.375,7.875,4.375,7.4375Q4.375,7,4.8125,7Z" fill="#3686FF" fill-opacity="1" style="mix-blend-mode:passthrough"/></g><g><path d="M4.8125,9.625L7.4375,9.625Q7.875,9.625,7.875,10.0625Q7.875,10.5,7.4375,10.5L4.8125,10.5Q4.375,10.5,4.375,10.0625Q4.375,9.625,4.8125,9.625Z" fill="#3686FF" fill-opacity="1" style="mix-blend-mode:passthrough"/></g><g><path d="M12.6875,1.75L4.8125,1.75C4.570875,1.75,4.375,1.945875,4.375,2.1875L4.375,3.5L5.25,3.5L5.25,2.625L12.25,2.625L12.25,10.5L11.375,10.5L11.375,11.375L12.6875,11.375C12.92913,11.375,13.125,11.17913,13.125,10.9375L13.125,2.1875C13.125,1.945875,12.92913,1.75,12.6875,1.75Z" fill="#3686FF" fill-opacity="1" style="mix-blend-mode:passthrough"/></g></g></g></svg>