<svg xmlns="http://www.w3.org/2000/svg" xmlns:xlink="http://www.w3.org/1999/xlink" fill="none" version="1.1" width="40" height="40" viewBox="0 0 40 40"><defs><linearGradient x1="0.5" y1="0" x2="0.5" y2="1" id="master_svg0_12_04560"><stop offset="0%" stop-color="#3686FF" stop-opacity="1"/><stop offset="100%" stop-color="#3651FF" stop-opacity="1"/></linearGradient></defs><g><g transform="matrix(-1,0,0,1,72.001953125,0)"><path d="M50.2381765625,7.551796913146973L40.0009765625,7.551796913146973C37.7918365625,7.551796913146973,36.0009765625,9.342656913146973,36.0009765625,11.551796913146973L36.0009765625,28.414396913146973C36.0009765625,30.623496913146973,37.7918365625,32.41439691314697,40.0009765625,32.41439691314697L50.2381765625,32.41439691314697C50.7466765625,32.41439691314697,51.1195765625,32.00849691314697,51.1195765625,31.534896913146973L51.1195765625,8.465115913146972C51.1195765625,7.957716913146973,50.7466765625,7.551796913146973,50.2381765625,7.551796913146973Z" fill="#ACCDFF" fill-opacity="1" style="mix-blend-mode:passthrough"/></g><g><path d="M21,21L31,21L31,23.30379L21,23.30379L21,21ZM21,25.6519L31,25.6519L31,28L21,28L21,25.6519Z" fill="#FFFFFF" fill-opacity="0.5600000023841858" style="mix-blend-mode:passthrough"/></g><g><path d="M21,12L31,12L31,14.30379L21,14.30379L21,12ZM21,16.6519L31,16.6519L31,19L21,19L21,16.6519Z" fill="#FFFFFF" fill-opacity="0.5600000023841858" style="mix-blend-mode:passthrough"/></g><g><path d="M17.9307,35.097300000000004L7.25275,33.0667C5.36558,32.707899999999995,4,31.0582,4,29.1372L4,10.86284C4,8.94184,5.36558,7.292120000000001,7.25275,6.93325L17.9307,4.902739C20.3952,4.434075,22.6779,6.323589999999999,22.6779,8.83232L22.6779,31.1677C22.6779,33.6764,20.3952,35.5659,17.9307,35.097300000000004" fill="url(#master_svg0_12_04560)" fill-opacity="1" style="mix-blend-mode:passthrough"/></g><g><path d="M12.091999999999999,16.432000000000002Q16.063000000000002,16.432000000000002,16.063000000000002,20.216Q16.063000000000002,24,12.091999999999999,24L8.814,24L8.814,16.432000000000002L12.091999999999999,16.432000000000002ZM11.245000000000001,22.185000000000002L12.048,22.185000000000002Q13.577,22.185000000000002,13.577,20.546L13.577,19.886Q13.577,18.247,12.048,18.247L11.245000000000001,18.247L11.245000000000001,22.185000000000002Z" fill="#FFFFFF" fill-opacity="1"/></g></g></svg>