<svg xmlns="http://www.w3.org/2000/svg" xmlns:xlink="http://www.w3.org/1999/xlink" fill="none" version="1.1" width="20" height="20" viewBox="0 0 20 20"><g><g transform="matrix(-1,0,0,-1,28,24)"><path d="M21.64619,16.35329L21.64645,16.35355Q21.71677,16.42388,21.80866,16.46194Q21.90054,16.5,22,16.5Q22.049239999999998,16.5,22.097540000000002,16.490389999999998Q22.14584,16.48078,22.19134,16.46194Q22.23684,16.443089999999998,22.27778,16.41573Q22.318730000000002,16.388370000000002,22.35355,16.35355Q22.388370000000002,16.318730000000002,22.41573,16.27778Q22.443089999999998,16.23684,22.46194,16.19134Q22.48078,16.14584,22.490389999999998,16.09755Q22.5,16.04925,22.5,16Q22.5,15.90054,22.46194,15.80866Q22.42388,15.71677,22.35355,15.64645L18.35355,11.646447Q18.28323,11.57612,18.19134,11.53806Q18.09946,11.5,18,11.5Q17.90054,11.5,17.80866,11.53806Q17.71677,11.57612,17.64645,11.646447L13.646634,15.64626L13.646447,15.64645Q13.57612,15.71677,13.53806,15.80866Q13.5,15.90054,13.5,16Q13.5,16.04925,13.509607,16.09755Q13.519214999999999,16.14584,13.53806,16.19134Q13.556906,16.23684,13.584265,16.27778Q13.611625,16.318730000000002,13.646447,16.35355Q13.681269,16.388370000000002,13.722215,16.41573Q13.763161,16.443089999999998,13.808658,16.46194Q13.854155,16.48078,13.9024549,16.490389999999998Q13.9507543,16.5,14,16.5Q14.0994562,16.5,14.191342,16.46194Q14.283227,16.42388,14.353553,16.35355L18,12.707107L21.64619,16.35329Z" fill-rule="evenodd" fill="#3686FF" fill-opacity="1"/></g></g></svg>