<svg xmlns="http://www.w3.org/2000/svg" xmlns:xlink="http://www.w3.org/1999/xlink" fill="none" version="1.1" width="14" height="14" viewBox="0 0 14 14"><defs><clipPath id="master_svg0_53_81931"><rect x="0" y="0" width="14" height="14" rx="0"/></clipPath></defs><g><g clip-path="url(#master_svg0_53_81931)"><g><path d="M11.33310625,4.4667236328125C10.73310625,2.6000536328125,8.99973625,1.2667236328125,6.99973625,1.2667236328125C4.99973625,1.2667236328125,3.19973625,2.6000536328125,2.59973625,4.4667236328125C1.13307625,4.800053632812499,0.06640625,6.1333936328125,0.06640625,7.6667236328125C0.06640625,9.5333936328125,1.53307625,11.0000536328125,3.39973625,11.0000536328125L3.39973625,9.6667236328125C2.33307625,9.6667236328125,1.39973625,8.8000536328125,1.39973625,7.6667236328125C1.39973625,6.6667236328125,2.19973625,5.8000536328125,3.19973625,5.6667236328125L3.73307625,5.6000536328125L3.79973625,5.1333936328125C4.06640625,3.6000536328125,5.39973625,2.5333936328125,6.99973625,2.5333936328125C8.53307625,2.5333936328125,9.86640625,3.6000536328125,10.13310625,5.1333936328125L10.19970625,5.6667236328125L10.73310625,5.6667236328125C11.79970625,5.7333936328125,12.59970625,6.6000536328125,12.59970625,7.6667236328125C12.59970625,8.8000536328125,11.73310625,9.6667236328125,10.59970625,9.6667236328125L10.59970625,11.0000536328125C12.46640625,11.0000536328125,13.93310625,9.5333936328125,13.93310625,7.6667236328125C13.93310625,6.1333936328125,12.86640625,4.800053632812499,11.33310625,4.4667236328125Z" fill="#3686FF" fill-opacity="1" style="mix-blend-mode:passthrough"/></g><g><path d="M8.4005175,8.199921953125L9.133857500000001,7.466581953125L7.0005175,5.333251953125L4.8671875,7.466581953125L5.6005205,8.199921953125L6.4671875,7.333251953125L6.4671875,10.666581953125L5.6005205,9.799921953125L4.8671875,10.599921953125001L7.0005175,12.733251953125L9.133857500000001,10.599921953125001L8.4005175,9.799921953125L7.5338575,10.666581953125L7.5338575,7.333251953125L8.4005175,8.199921953125Z" fill="#3686FF" fill-opacity="1" style="mix-blend-mode:passthrough"/></g></g></g></svg>