<svg xmlns="http://www.w3.org/2000/svg" xmlns:xlink="http://www.w3.org/1999/xlink" fill="none" version="1.1" width="16" height="16" viewBox="0 0 16 16"><defs><clipPath id="master_svg0_53_78941"><rect x="0" y="0" width="16" height="16" rx="0"/></clipPath></defs><g><g clip-path="url(#master_svg0_53_78941)"><g><path d="M9,2C9.39428,2.000120392,9.72115,2.3055120000000002,9.74803,2.69888C9.7749,3.09225,9.49261,3.43926,9.102,3.4930000000000003L9,3.5L9,3.505L3.485,3.505C2.97769,3.5051300000000003,2.55085,3.88511,2.492,4.388999999999999L2.4850000000000003,4.506L2.4850000000000003,12.506C2.48507,13.013,2.86451,13.4397,3.368,13.499L3.485,13.506L11.485,13.506C11.9923,13.5059,12.4192,13.1259,12.478,12.622L12.485,12.506L12.485,9L12.5,9C12.5131,8.61012,12.8228,8.29535,13.2125,8.27604C13.6021,8.256730000000001,13.9414,8.53932,13.993,8.926L13.998,9L14,9L14,13C14,14.1046,13.1046,15,12,15L3,15C1.8954309999999999,15,1.0000000762939,14.1046,1.0000000762939,13L1.0000000762939,4C0.999668961,2.953375,1.806323,2.0834969,2.85,2.005L3,2L9,2ZM13.536,3.214C13.8291,3.50693,13.8291,3.98207,13.536,4.275L7.526,10.285C7.23324,10.57796,6.75846,10.57827,6.46532,10.28568C6.17218,9.993089999999999,6.17159,9.51831,6.464,9.225L12.474,3.215C12.767,2.921213,13.243,2.921213,13.536,3.215L13.536,3.214Z" fill="#3686FF" fill-opacity="1" style="mix-blend-mode:passthrough"/></g></g></g></svg>