<svg xmlns="http://www.w3.org/2000/svg" xmlns:xlink="http://www.w3.org/1999/xlink" fill="none" version="1.1" width="20" height="20" viewBox="0 0 20 20"><defs><clipPath id="master_svg0_61_29449"><rect x="0" y="0" width="20" height="20" rx="0"/></clipPath></defs><g clip-path="url(#master_svg0_61_29449)"><g><path d="M17.310515625,5.855470625L9.867185625000001,10.152340625L2.609375005,5.960940625C2.679687525,4.863281625,3.5917966249999997,3.994140625,4.707035625,3.994140625L15.220715625,3.994140625C16.300815625,3.994140625,17.191415624999998,4.806640625,17.310515625,5.855470625ZM17.324215625,7.394530625L17.324215625,13.935550625C17.324215625,15.097640625,16.382815625,16.039040625,15.220715625,16.039040625L4.707035625,16.039040625C3.5449216249999997,16.039040625,2.603515625,15.097640625,2.603515625,13.935550625L2.603515625,7.505860625L9.535155625,11.507810625000001C9.773435625000001,11.644530625,10.060545625,11.619140625,10.267575625,11.466800625000001C10.277345624999999,11.462890625,10.285155625,11.457030625,10.294925625000001,11.451170625L17.324215625,7.394530625Z" fill="#BAC2CD" fill-opacity="1" style="mix-blend-mode:passthrough"/></g></g></svg>