<svg xmlns="http://www.w3.org/2000/svg" xmlns:xlink="http://www.w3.org/1999/xlink" fill="none" version="1.1" width="15" height="15" viewBox="0 0 15 15"><g><g><ellipse cx="7.5" cy="7.5" rx="7.5" ry="7.5" fill="#F54A45" fill-opacity="1"/></g><g><path d="M7.231405,2L7.479339,10.77311L8.50413,10.77311L8.76859,2L7.231405,2ZM7.991735,12C7.710744,12,7.479339,12.084,7.280992,12.2857C7.0826445,12.4706,7,12.7059,7,12.9916C7,13.2773,7.0826445,13.5126,7.280992,13.7143C7.479339,13.8992,7.710744,14,7.991735,14C8.27273,14,8.52066,13.8992,8.71901,13.7143C8.90083,13.5294,9,13.2941,9,12.9916C9,12.7059,8.90083,12.4706,8.71901,12.2857C8.52066,12.084,8.27273,12,7.991735,12Z" fill="#FFFFFF" fill-opacity="1"/></g></g></svg>