<svg xmlns="http://www.w3.org/2000/svg" xmlns:xlink="http://www.w3.org/1999/xlink" fill="none" version="1.1" width="40" height="40" viewBox="0 0 40 40"><defs><linearGradient x1="0.5" y1="0" x2="0.5" y2="1" id="master_svg0_8_02234"><stop offset="0%" stop-color="#FECD00" stop-opacity="1"/><stop offset="100%" stop-color="#F1D973" stop-opacity="1"/></linearGradient><linearGradient x1="0.5" y1="0" x2="0.5" y2="1" id="master_svg1_8_02400"><stop offset="40.9912109375%" stop-color="#FFEFAD" stop-opacity="0"/><stop offset="100%" stop-color="#F6E392" stop-opacity="1"/></linearGradient></defs><g><g><path d="M12.0386,3C13.8093,3,15.0329,3,16.1325,3.406154C18.5331,4.28954,19.5888,6.38631,20.4019,8.003309999999999C20.6446,8.480540000000001,21.086,9.348690000000001,21.2099,9.54162C21.2842,9.65624,21.4079,9.731069999999999,21.5454,9.74469C21.7726,9.77008,22.0823,9.77008,22.627,9.77008L28.7446,9.77008C30.4973,9.77008,31.9118,9.77008,33.045,9.88177C34.2169,10.00108,35.2339,10.247309999999999,36.1322,10.83877C36.8371,11.3019,37.4423,11.89708,37.9133,12.59031C38.5121,13.4737,38.7651,14.4713,38.8838,15.6238C39,16.7407,39,18.2714,39,19.995C39,22.9041,39,25.1862,38.8116,27.0012C38.6206,28.8542,38.223,30.3646,37.3325,31.6745C36.6097,32.7381,35.6805,33.6494,34.6015,34.3602C33.2696,35.2359,31.7363,35.6268,29.852,35.8147C28.0038,36,25.6832,36,22.7225,36L20.3993,36C16.429299999999998,36,13.3163,36,10.88733,35.6776C8.40156,35.3502,6.43979,34.6622,4.89877,33.1493C3.3577500000000002,31.6364,2.660806,29.7072,2.327822,27.2601C2,24.8739,2,21.8125,2,17.905900000000003L2,12.57761C2,11.09008,2,9.891919999999999,2.0877634,8.922229999999999C2.178108,7.92461,2.366541,7.05138,2.818264,6.25431C3.40149,5.22639,4.26394,4.3782499999999995,5.309200000000001,3.804692C6.11972,3.360461,7.00767,3.172615,8.02211,3.0863071C9.00816,2.999999612662,10.52595,2.999999612662,12.0386,3Z" fill="url(#master_svg0_8_02234)" fill-opacity="1" style="mix-blend-mode:passthrough"/></g><g><g><path d="M12.0386,3C13.8093,3,15.0329,3,16.1325,3.406154C18.5331,4.28954,19.5888,6.38631,20.4019,8.003309999999999C20.6446,8.480540000000001,21.086,9.348690000000001,21.2099,9.54162C21.2842,9.65624,21.4079,9.731069999999999,21.5454,9.74469C21.7726,9.77008,22.0823,9.77008,22.627,9.77008L28.7446,9.77008C30.4973,9.77008,31.9118,9.77008,33.045,9.88177C34.2169,10.00108,35.2339,10.247309999999999,36.1322,10.83877C36.8371,11.3019,37.4423,11.89708,37.9133,12.59031C38.5121,13.4737,38.7651,14.4713,38.8838,15.6238C39,16.7407,39,18.2714,39,19.995C39,22.9041,39,15.1861,38.8115,17.0011C38.6205,18.8542,38.2226,20.3646,37.332,21.6744C36.6093,22.7381,35.6805,23.6493,34.6016,24.3601C33.2696,25.2359,31.7359,25.6269,29.8516,25.8147C28.0034,26,25.6834,26,22.7227,26L20.3994,26C16.4294,26,13.3167,26,10.8877,25.6776C8.40193,25.3502,6.43946,24.6622,4.89844,23.1493C3.3574200000000003,21.6364,2.66111,19.7072,2.328125,17.2601C2.000303149,14.874,2,21.8125,2,17.905900000000003L2,12.57761C2,11.09008,2,9.891919999999999,2.0877634,8.922229999999999C2.178108,7.92461,2.366541,7.05138,2.818264,6.25431C3.40149,5.22639,4.26394,4.3782499999999995,5.309200000000001,3.804692C6.11972,3.360461,7.00767,3.172615,8.02211,3.0863071C9.00816,2.999999612662,10.52595,2.999999612662,12.0386,3Z" fill="url(#master_svg1_8_02400)" fill-opacity="1" style="mix-blend-mode:passthrough"/></g></g></g></svg>