<svg xmlns="http://www.w3.org/2000/svg" xmlns:xlink="http://www.w3.org/1999/xlink" fill="none" version="1.1" width="18" height="18" viewBox="0 0 18 18"><g><g><path d="M14.4,2C15.8359,2.000000185327,17,3.1781800000000002,17,4.63155L17,13.1359C17,14.5893,15.8359,15.7674,14.4,15.7674L3.6,15.7674C2.16406,15.7674,1.000000183105,14.5893,1.000000183105,13.1359L1.000000183105,4.63236C0.999557434,3.17868,2.1637500000000003,1.999999814673,3.6,2L14.4,2ZM14.4,3.21456L3.6,3.21456C2.8268,3.21456,2.2,3.84897,2.2,4.63155L2.2,13.1359C2.2,13.9189,2.8272,14.5529,3.6,14.5529L14.4,14.5529C15.1732,14.5529,15.8,13.9185,15.8,13.1359L15.8,4.63236C15.8004,3.84946,15.1735,3.21456,14.4,3.21456ZM5.812,6.35055C6.2888,6.35055,6.6272,6.41614,7.0136,6.60399C7.26225,6.72514,7.36693,7.02725,7.24751,7.27905C7.12809,7.53085,6.82971,7.63713,6.5808,7.51653C6.3408,7.39993,6.1488,7.36269,5.812,7.36269C5.1184,7.36269,4.6088000000000005,8.00721,4.6088000000000005,8.87846C4.6088000000000005,9.75051,5.1192,10.39747,5.812,10.39747C6.1544,10.39747,6.4448,10.25172,6.596,9.992609999999999L6.6,9.978850000000001L6.6,9.38372L6.2992,9.38453C6.0518,9.384509999999999,5.84161,9.20137,5.8048,8.953759999999999L5.8,8.87927C5.8,8.62502,5.9848,8.41531,6.2264,8.37887L6.3,8.3732L7.1016,8.3732C7.3528,8.3732,7.56,8.56025,7.596,8.804780000000001L7.6016,8.87927L7.6,10.1327L7.5952,10.17723L7.5784,10.2501L7.5624,10.29464C7.2608,11.01528,6.5696,11.40879,5.812,11.40879C4.5112000000000005,11.40879,3.6088,10.26549,3.6088,8.87765C3.6088,7.49143,4.510400000000001,6.34975,5.812,6.34975L5.812,6.35055ZM9.5032,6.44934C9.7544,6.44934,9.9624,6.63638,9.9976,6.88091L10.0032,6.95541L10.0032,10.81123C10.00267,11.07584,9.80083,11.29536,9.54011,11.31489C9.27939,11.33442,9.04782,11.14737,9.0088,10.88572L9.0032,10.81123L9.0032,6.95541C9.0032,6.67606,9.2272,6.44934,9.5032,6.44934ZM11.9,6.44934L13.4976,6.45339C13.7585,6.45556,13.9738,6.66033,13.9922,6.9237C14.0107,7.18707,13.826,7.42051,13.568,7.45985L13.4944,7.46552L12.3976,7.46147L12.3976,8.88089L13.296,8.88251C13.5472,8.88251,13.7552,9.07036,13.7904,9.31408L13.796,9.388580000000001C13.7963,9.63955,13.6149,9.85284,13.3696,9.88978L13.296,9.894639999999999L12.3976,9.894639999999999L12.3976,10.79746C12.3976,11.04786,12.2166,11.2606,11.972,11.29786L11.8984,11.30353C11.6504,11.30385,11.4397,11.1202,11.4032,10.87196L11.3984,10.79746L11.3984,6.95298C11.3989,6.70236,11.5806,6.48988,11.8256,6.45339L11.9,6.44853L11.9,6.44934Z" fill="#3686FF" fill-opacity="1" style="mix-blend-mode:passthrough"/></g></g></svg>