<svg xmlns="http://www.w3.org/2000/svg" xmlns:xlink="http://www.w3.org/1999/xlink" fill="none" version="1.1" width="20" height="20" viewBox="0 0 20 20"><g><g><path d="M10,18C5.582,18,2,14.418,2,10C2,5.582,5.582,2,10,2C14.418,2,18,5.582,18,10C18,14.418,14.418,18,10,18ZM10.66667,10.39267L10.66667,6.66467C10.66667,6.302,10.368,6,10,6C9.62933,6,9.33333,6.29733,9.33333,6.66467L9.33333,10.66867C9.3322,10.84341,9.40083,11.01138,9.524000000000001,11.13533L11.41867,13.03C11.67869,13.2884,12.0992,13.2863,12.3567,13.0253C12.6151,12.7668,12.6172,12.3484,12.3613,12.0873L10.66667,10.39267Z" fill="#B8B8B8" fill-opacity="1" style="mix-blend-mode:passthrough"/></g></g></svg>