<svg xmlns="http://www.w3.org/2000/svg" xmlns:xlink="http://www.w3.org/1999/xlink" fill="none" version="1.1" width="23" height="16" viewBox="0 0 23 16"><g><g><path d="M0,16L19,16C21.2091,16,23,14.2091,23,12L23,0L0,0L0,16Z" fill="#49DB96" fill-opacity="1" style="mix-blend-mode:passthrough"/></g><g><path d="M11.32,8.39L11.32,6.640000000000001L11.879999999999999,6.640000000000001L11.879999999999999,6L11.32,6L11.32,4.22L7.89,4.22L7.89,4.84L9.04,4.84C9.03,5.24,9.01,5.62,8.99,6L7.59,6L7.59,6.640000000000001L8.93,6.640000000000001C8.89,7.03,8.83,7.41,8.76,7.77L7.83,7.77L7.83,8.39L8.61,8.39C8.34,9.42,7.93,10.24,7.38,10.86L7.76,11.46C8.14,11.04,8.46,10.530000000000001,8.73,9.95L8.73,12.94L9.370000000000001,12.94L9.370000000000001,12.34L10.95,12.34L10.95,12.92L11.59,12.92L11.59,9.36L8.97,9.36C9.08,9.059999999999999,9.18,8.74,9.27,8.39L11.32,8.39ZM9.69,4.84L10.66,4.84L10.66,6L9.64,6C9.66,5.63,9.68,5.24,9.69,4.84ZM9.58,6.640000000000001L10.66,6.640000000000001L10.66,7.77L9.41,7.77C9.47,7.41,9.53,7.04,9.58,6.640000000000001ZM9.370000000000001,11.7L9.370000000000001,10.02L10.95,10.02L10.95,11.7L9.370000000000001,11.7ZM13.95,6.43L13.95,7.88L12.4,7.88L12.4,8.55L13.95,8.55L13.95,10L12.09,10L12.09,10.690000000000001L13.95,10.690000000000001L13.95,12.99L14.66,12.99L14.66,10.690000000000001L16.54,10.690000000000001L16.54,10L14.66,10L14.66,8.55L16.11,8.55L16.11,7.88L14.66,7.88L14.66,6.43L16.32,6.43L16.32,5.74L15.21,5.74C15.47,5.23,15.71,4.66,15.92,4.02L15.24,3.7800000000000002C15.03,4.47,14.780000000000001,5.12,14.49,5.74L13.36,5.74L13.96,5.45C13.690000000000001,4.87,13.4,4.33,13.1,3.85L12.49,4.14C12.780000000000001,4.61,13.059999999999999,5.140000000000001,13.34,5.74L12.16,5.74L12.16,6.43L13.95,6.43Z" fill="#FFFFFF" fill-opacity="1"/></g></g></svg>