<svg xmlns="http://www.w3.org/2000/svg" xmlns:xlink="http://www.w3.org/1999/xlink" fill="none" version="1.1" width="36" height="16" viewBox="0 0 36 16"><g><g><path d="M0,16L32,16C34.2091,16,36,14.2091,36,12L36,0L0,0L0,16Z" fill="#3FCEF5" fill-opacity="1"/></g><g><path d="M8.32,8.39L8.32,6.640000000000001L8.879999999999999,6.640000000000001L8.879999999999999,6L8.32,6L8.32,4.22L4.89,4.22L4.89,4.84L6.04,4.84C6.029999999999999,5.24,6.01,5.62,5.99,6L4.59,6L4.59,6.640000000000001L5.93,6.640000000000001C5.89,7.03,5.83,7.41,5.76,7.77L4.83,7.77L4.83,8.39L5.61,8.39C5.34,9.42,4.93,10.24,4.38,10.86L4.76,11.46C5.14,11.04,5.46,10.530000000000001,5.73,9.95L5.73,12.94L6.37,12.94L6.37,12.34L7.95,12.34L7.95,12.92L8.59,12.92L8.59,9.36L5.97,9.36C6.08,9.059999999999999,6.18,8.74,6.27,8.39L8.32,8.39ZM6.6899999999999995,4.84L7.66,4.84L7.66,6L6.640000000000001,6C6.66,5.63,6.68,5.24,6.6899999999999995,4.84ZM6.58,6.640000000000001L7.66,6.640000000000001L7.66,7.77L6.41,7.77C6.470000000000001,7.41,6.529999999999999,7.04,6.58,6.640000000000001ZM6.37,11.7L6.37,10.02L7.95,10.02L7.95,11.7L6.37,11.7ZM10.95,6.43L10.95,7.88L9.4,7.88L9.4,8.55L10.95,8.55L10.95,10L9.09,10L9.09,10.690000000000001L10.95,10.690000000000001L10.95,12.99L11.66,12.99L11.66,10.690000000000001L13.54,10.690000000000001L13.54,10L11.66,10L11.66,8.55L13.11,8.55L13.11,7.88L11.66,7.88L11.66,6.43L13.32,6.43L13.32,5.74L12.21,5.74C12.47,5.23,12.71,4.66,12.92,4.02L12.24,3.7800000000000002C12.03,4.47,11.780000000000001,5.12,11.49,5.74L10.36,5.74L10.96,5.45C10.690000000000001,4.87,10.4,4.33,10.1,3.85L9.49,4.14C9.780000000000001,4.61,10.059999999999999,5.140000000000001,10.34,5.74L9.16,5.74L9.16,6.43L10.95,6.43ZM21.44,3.8L20.98,4.24C21.49,4.63,21.89,5,22.19,5.359999999999999L20.32,5.359999999999999C20.3,4.88,20.29,4.37,20.29,3.81L19.55,3.81C19.55,4.35,19.560000000000002,4.86,19.58,5.359999999999999L15.45,5.359999999999999L15.45,8.690000000000001C15.42,10.32,15.09,11.59,14.45,12.51L15,13C15.74,11.92,16.14,10.48,16.18,8.690000000000001L16.18,8.39L17.91,8.39C17.89,9.49,17.86,10.21,17.8,10.55C17.740000000000002,10.83,17.6,10.98,17.380000000000003,10.99C17.11,10.99,16.78,10.98,16.39,10.96L16.61,11.61C16.93,11.63,17.22,11.65,17.46,11.65C17.96,11.63,18.27,11.41,18.4,10.98C18.53,10.49,18.61,9.4,18.630000000000003,7.71L16.18,7.71L16.18,6.05L19.61,6.05C19.689999999999998,7.3,19.83,8.35,20.05,9.190000000000001C20.16,9.620000000000001,20.29,10.02,20.43,10.39C19.740000000000002,11.26,18.89,11.92,17.89,12.37L18.29,12.97C19.23,12.55,20.05,11.94,20.75,11.12C20.9,11.43,21.07,11.71,21.25,11.95C21.73,12.55,22.18,12.85,22.6,12.85C23.05,12.85,23.39,12.18,23.63,10.85L22.98,10.49C22.83,11.52,22.66,12.04,22.48,12.05C22.28,12.05,22.01,11.81,21.68,11.33C21.52,11.1,21.37,10.82,21.23,10.5C21.87,9.6,22.39,8.48,22.79,7.16L22.14,6.88C21.83,7.95,21.43,8.89,20.93,9.690000000000001C20.86,9.469999999999999,20.79,9.24,20.73,8.99C20.55,8.27,20.42,7.29,20.35,6.05L23.43,6.05L23.43,5.359999999999999L22.21,5.359999999999999L22.67,4.9C22.33,4.53,21.92,4.16,21.44,3.8ZM32.370000000000005,7.46L25.64,7.46L25.64,11.31L26.35,11.31L26.35,8.120000000000001L31.66,8.120000000000001L31.66,11.19L32.370000000000005,11.19L32.370000000000005,7.46ZM26.24,4.2L26.24,6.71L31.77,6.71L31.77,4.2L26.24,4.2ZM31.07,6.08L26.94,6.08L26.94,4.84L31.07,4.84L31.07,6.08ZM28.73,8.77C28.65,10,28.37,10.870000000000001,27.91,11.38C27.38,11.93,26.3,12.25,24.68,12.35L24.96,13C26.82,12.83,28.01,12.43,28.53,11.81C29.01,11.29,29.32,10.3,29.46,8.83L28.73,8.77ZM29.72,11.09L29.36,11.63C30.57,11.97,31.75,12.43,32.9,13.03L33.29,12.43C32.21,11.91,31.02,11.46,29.72,11.09Z" fill="#FFFFFF" fill-opacity="1"/></g></g></svg>