<svg xmlns="http://www.w3.org/2000/svg" xmlns:xlink="http://www.w3.org/1999/xlink" fill="none" version="1.1" width="32" height="16" viewBox="0 0 32 16"><g><g><path d="M0,0L0,16L28,16C30.2091,16,32,14.2091,32,12L32,0L0,0Z" fill="#3F8EF5" fill-opacity="1"/></g><g><path d="M8.129999999999999,3.7199999999999998C8.02,4.41,7.9,5.08,7.76,5.74L6.55,5.74L6.55,6.43L7.61,6.43C7.37,7.45,7.1,8.4,6.79,9.280000000000001C7.35,9.690000000000001,7.87,10.08,8.33,10.45C7.86,11.23,7.25,11.89,6.49,12.44L6.98,13.04C7.75,12.45,8.39,11.74,8.89,10.91C9.39,11.33,9.82,11.71,10.16,12.07L10.65,11.5C10.280000000000001,11.14,9.81,10.73,9.23,10.280000000000001C9.79,9.11,10.120000000000001,7.73,10.21,6.15L10.21,5.74L8.48,5.74C8.6,5.140000000000001,8.72,4.48,8.84,3.7800000000000002L8.129999999999999,3.7199999999999998ZM8.65,9.84C8.32,9.6,7.96,9.34,7.58,9.07C7.84,8.370000000000001,8.09,7.49,8.33,6.43L9.5,6.43C9.41,7.71,9.129999999999999,8.85,8.65,9.84ZM10.55,8.030000000000001L10.55,8.73L12.809999999999999,8.73L12.809999999999999,11.71C12.809999999999999,12.05,12.690000000000001,12.22,12.46,12.22C11.98,12.22,11.530000000000001,12.21,11.120000000000001,12.21L11.309999999999999,12.89L12.75,12.89C13.27,12.89,13.54,12.57,13.54,11.93L13.54,8.73L15.58,8.73L15.58,8.030000000000001L13.54,8.030000000000001L13.54,6.99C14.14,6.390000000000001,14.69,5.74,15.17,5.05L15.17,4.35L10.84,4.35L10.84,5.05L14.35,5.05C13.86,5.73,13.35,6.3,12.809999999999999,6.77L12.809999999999999,8.030000000000001L10.55,8.030000000000001ZM16.740000000000002,5.21L16.740000000000002,5.91L19.39,5.91C19.189999999999998,7.17,18.93,8.23,18.61,9.09C18.130000000000003,10.27,17.42,11.35,16.48,12.32L16.93,12.9C17.97,11.86,18.75,10.690000000000001,19.27,9.370000000000001C19.41,8.99,19.55,8.559999999999999,19.67,8.08L19.740000000000002,8.08C20.07,9.17,20.630000000000003,10.11,21.42,10.89C20.6,11.47,19.59,11.95,18.380000000000003,12.32L18.759999999999998,13C20,12.57,21.07,12.02,21.95,11.36C22.8,12.05,23.88,12.59,25.19,12.97L25.55,12.31C24.35,11.99,23.33,11.52,22.5,10.89C23.37,10.09,24.01,9.14,24.41,8.04L24.41,7.41L19.83,7.41C19.93,6.95,20.02,6.45,20.11,5.91L25.4,5.91L25.4,5.21L20.21,5.21C20.27,4.78,20.32,4.32,20.369999999999997,3.84L19.65,3.84C19.6,4.3100000000000005,19.55,4.77,19.490000000000002,5.21L16.740000000000002,5.21ZM20.41,8.08L23.65,8.08C23.3,8.98,22.74,9.77,21.97,10.45C21.27,9.8,20.75,9.01,20.41,8.08Z" fill="#FFFFFF" fill-opacity="1"/></g></g></svg>