<svg xmlns="http://www.w3.org/2000/svg" xmlns:xlink="http://www.w3.org/1999/xlink" fill="none" version="1.1" width="20" height="20" viewBox="0 0 20 20"><g><g><path d="M10.00175625,2.142578125C14.33305625,2.142578125,17.84335625,5.654688125,17.84335625,9.984178125C17.84335625,11.931838125,17.134956250000002,13.712478125,15.95895625,15.083578125L17.45835625,17.384578125C17.45835625,17.627178125,17.259756250000002,17.825778125,17.01365625,17.825778125L10.00175625,17.825778125C5.67050625,17.825778125,2.16015625,14.315478125,2.16015625,9.984178125C2.16015625,5.654688125,5.67050625,2.142578125,10.00175625,2.142578125ZM5.29589625,9.789448125C5.29589625,9.248048125,5.735356250000001,8.808598125,6.27675625,8.808598125C6.81816625,8.808598125,7.25761625,9.248048125,7.25761625,9.789448125C7.25761625,10.330858125,6.81816625,10.770308125,6.27675625,10.770308125C5.735356250000001,10.770308125,5.29589625,10.330858125,5.29589625,9.789448125ZM8.82558625,9.789448125C8.82558625,9.248048125,9.26503625,8.808598125,9.80644625,8.808598125C10.34784625,8.808598125,10.78554625,9.248048125,10.78730625,9.789448125C10.78730625,10.330858125,10.34784625,10.770308125,9.80644625,10.770308125C9.26503625,10.770308125,8.82558625,10.330858125,8.82558625,9.789448125ZM12.35355625,9.789448125C12.35355625,9.248048125,12.79295625,8.808598125,13.33435625,8.808598125C13.87575625,8.808598125,14.31525625,9.248048125,14.31525625,9.789448125C14.31525625,10.330858125,13.87575625,10.770308125,13.33435625,10.770308125C12.79295625,10.770308125,12.35355625,10.330858125,12.35355625,9.789448125Z" fill-rule="evenodd" fill="#3686FF" fill-opacity="1" style="mix-blend-mode:passthrough"/></g></g></svg>