<svg xmlns="http://www.w3.org/2000/svg" xmlns:xlink="http://www.w3.org/1999/xlink" fill="none" version="1.1" width="20" height="20" viewBox="0 0 20 20"><g><g><path d="" fill="#FFFFFF" fill-opacity="1"/></g><g><path d="M14.172494241516112,6.592291831970215L18.557742241516113,6.592291831970215C18.90219224151611,6.592291831970215,19.16157224151611,6.767276831970215,19.16157224151611,7.136786831970214C19.16157224151611,7.506401831970215,18.862042241516114,7.6813818319702145,18.517622241516115,7.6813818319702145L14.172494241516112,7.6813818319702145C13.827901241516113,7.6813818319702145,13.548352241516113,7.506400831970215,13.548352241516113,7.136786831970214C13.548352241516113,6.767254831970215,13.827901241516113,6.592291831970215,14.172494241516112,6.592291831970215Z" fill="#BAC3CD" fill-opacity="1" style="mix-blend-mode:passthrough"/></g><g><path d="M19.14991734375,9.631953591369628C19.14991734375,10.001505591369629,18.89036734375,10.17661959136963,18.54601734375,10.17661959136963L15.10219134375,10.17661959136963C14.75759934375,10.17661959136963,14.47802734375,10.00156859136963,14.47802734375,9.631953591369628C14.47802734375,9.262442591369629,14.75759734375,9.087479591369629,15.10219134375,9.087479591369629L18.56599734375,9.087479591369629C18.910407343750002,9.087479591369629,19.14991734375,9.262443591369628,19.14991734375,9.631953591369628Z" fill="#BAC3CD" fill-opacity="1" style="mix-blend-mode:passthrough"/></g><g><path d="M15.9895,15.277424678611755C15.9895,16.087424678611754,15.3317,16.582924678611754,14.5231,16.582924678611754L9.18986,16.582924678611754L7.4736,16.582924678611754L2.46638,16.582924678611754C1.657873,16.582924678611754,1,16.087524678611757,1,15.277424678611755L1,14.925424678611755C1,14.183324678611756,1.546432,13.525324678611755,2.24395,13.275024678611755L5.22954,11.944224678611755Q6.03881,11.695524678611756,6.26036,11.447224678611756C6.40776,11.281864678611756,6.45324,10.736634678611756,6.2664,10.378734678611755C6.0796,10.020864678611755,4.5668299999999995,8.051854678611756,4.5668299999999995,6.4003046786117554C4.5668299999999995,3.7368346786117552,6.31757,1.5776246786117554,8.47709,1.5776246786117554C10.63669,1.5776246786117554,12.3873,3.7368346786117552,12.3873,6.4003046786117554C12.3873,8.124664678611754,10.68972,10.022954678611756,10.55017,10.490074678611755C10.41052,10.957184678611755,10.39925,11.322824678611756,10.55696,11.477974678611755Q10.8023,11.719124678611756,11.4337,11.964324678611755L14.7456,13.254924678611756C15.4431,13.505424678611755,15.9896,14.183324678611756,15.9896,14.925524678611755L15.9895,15.277424678611755Z" fill="#BAC3CD" fill-opacity="1" style="mix-blend-mode:passthrough"/></g><g><path d="M18.556354854125978,12.527209343566895L16.254414854125976,12.527209343566895C15.909904854125976,12.527209343566895,15.630334854125977,12.352220343566895,15.630334854125977,11.982543343566894C15.630334854125977,11.613074343566895,15.909904854125976,11.438069343566895,16.254414854125976,11.438069343566895L18.576394854125976,11.438069343566895C18.920904854125975,11.438069343566895,19.180004854125976,11.613054343566894,19.180004854125976,11.982543343566894C19.179974854125977,12.352158343566895,18.900824854125975,12.527209343566895,18.556354854125978,12.527209343566895Z" fill="#BAC3CD" fill-opacity="1" style="mix-blend-mode:passthrough"/></g></g></svg>