<svg xmlns="http://www.w3.org/2000/svg" xmlns:xlink="http://www.w3.org/1999/xlink" fill="none" version="1.1" width="20" height="20" viewBox="0 0 20 20"><defs><clipPath id="master_svg0_61_29453"><rect x="0" y="0" width="20" height="20" rx="0"/></clipPath></defs><g clip-path="url(#master_svg0_61_29453)"><g><path d="M9.23947375,9.912176640624999C10.39624375,9.453646640625,11.21771375,8.325996640625,11.21771375,7.008056640625C11.21771375,5.2848166406249995,9.81565375,3.883056640625,8.09241375,3.883056640625C6.3691837499999995,3.883056640625,4.96741375,5.2848166406249995,4.96741375,7.008056640625C4.96741375,8.325996640625,5.78859375,9.453646640625,6.94536375,9.912176640624999C4.37330375,10.443936640625001,2.43359375,12.726586640625,2.43359375,15.453956640625C2.43359375,16.117156640624998,2.89888775,16.336856640625,3.27271075,16.513356640625L3.29418175,16.522156640625C4.80153375,17.054256640625,6.98153375,17.195956640625,8.03212375,17.195956640625C9.177713749999999,17.195956640625,11.42036375,17.010156640625,12.90979375,16.495656640625C13.46799375,16.281556640625,13.75119375,15.930956640625,13.75119375,15.453956640625C13.75119375,12.726286640625,11.81153375,10.443646640625001,9.23947375,9.912176640624999Z" fill="#BAC3CD" fill-opacity="1" style="mix-blend-mode:passthrough"/></g><g><path d="M13.36743515625,8.994990857238768C14.52419515625,8.536460857238769,15.34566515625,7.40881085723877,15.34566515625,6.0908708572387695C15.34566515625,4.367630857238769,13.94361515625,2.9658708572387695,12.22037515625,2.9658708572387695C11.49890515625,2.9658708572387695,10.79449215625,3.2179298572387696,10.23772715625,3.6752828572387695L10.15478515625,3.7432238572387693C11.20420515625,4.44454085723877,11.83399515625,5.6236708572387695,11.83331515625,6.8858708572387695C11.83331515625,7.9779308572387695,11.36772515625,8.95881085723877,10.62743315625,9.64910085723877C12.80831515625,10.63234085723877,14.32743515625,12.823810857238769,14.32743515625,15.37147085723877C14.32743515625,15.63327085723877,14.30949515625,15.89057085723877,14.27860515625,16.14377085723877L14.29419515625,16.14207085723877C15.05860515625,16.053270857238772,16.153905156249998,15.88407085723877,17.03801515625,15.57847085723877C17.59625515625,15.36437085723877,17.87949515625,15.01377085723877,17.87949515625,14.53677085723877C17.87949515625,11.80910085723877,15.93978515625,9.52646085723877,13.36743515625,8.994990857238768Z" fill="#BAC3CD" fill-opacity="1" style="mix-blend-mode:passthrough"/></g></g></svg>