<svg xmlns="http://www.w3.org/2000/svg" xmlns:xlink="http://www.w3.org/1999/xlink" fill="none" version="1.1" width="20" height="20" viewBox="0 0 20 20"><defs><clipPath id="master_svg0_61_29458"><rect x="0" y="0" width="20" height="20" rx="0"/></clipPath></defs><g clip-path="url(#master_svg0_61_29458)"><g><path d="M11.23947375,9.912176640624999C12.39624375,9.453646640625,13.21771375,8.325996640625,13.21771375,7.008056640625C13.21771375,5.2848166406249995,11.81565375,3.883056640625,10.09241375,3.883056640625C8.36918375,3.883056640625,6.96741375,5.2848166406249995,6.96741375,7.008056640625C6.96741375,8.325996640625,7.78859375,9.453646640625,8.94536375,9.912176640624999C6.37330375,10.443936640625001,4.43359375,12.726586640625,4.43359375,15.453956640625C4.43359375,16.117156640624998,4.89888775,16.336856640625,5.27271075,16.513356640625L5.29418175,16.522156640625C6.80153375,17.054256640625,8.98153375,17.195956640625,10.03212375,17.195956640625C11.177713749999999,17.195956640625,13.42036375,17.010156640625,14.90979375,16.495656640625C15.46799375,16.281556640625,15.75119375,15.930956640625,15.75119375,15.453956640625C15.75119375,12.726286640625,13.81153375,10.443646640625001,11.23947375,9.912176640624999Z" fill="#BAC3CD" fill-opacity="1" style="mix-blend-mode:passthrough"/></g><g><path d="M7.4759621875,9.649106171875001C6.7356721875,8.958816171875,6.2700821875,7.977926171875,6.2700821875,6.885866171875C6.2700821875,5.548516171875,6.9662521875,4.375866171875,8.013902187500001,3.703517171875L8.013902187500001,3.703223171875C8.007432187500001,3.694106171875,7.9980221875,3.688811171875,7.9906721875,3.681164171875C7.9830221875,3.672929171875,7.9783121875,3.662635171875,7.9692021875,3.655282171875C7.4145221875,3.209853171875,6.7247021875,2.966598511875,6.0133121875,2.965576171875C4.2900821874999995,2.965576171875,2.8880221875,4.3673361718749995,2.8880221875,6.090576171875C2.8880221875,7.408516171875,3.7094921875,8.536166171875,4.8662521875,8.994696171874999C2.2939021875,9.526456171875001,0.3544921875,11.809106171875,0.3544921875,14.536476171875C0.3544921875,15.013776171875,0.6377271875,15.364076171875,1.2033161875,15.581176171875C2.0409621875,15.870576171875,3.0803721875,16.037376171875,3.8230221875,16.127976171874998C3.7921621875,15.876976171875,3.7764421875,15.624376171875,3.7759621875,15.371476171875C3.7759621875,12.823806171875,5.2950821875,10.632336171875,7.4759621875,9.649106171875001ZM15.3670921875,8.994986171875C16.5238921875,8.536456171874999,17.3453921875,7.408816171875,17.3453921875,6.090866171875C17.3453921875,4.3676361718750005,15.9432921875,2.965870856875,14.2200921875,2.965870856875C13.4985921875,2.965870856875,12.7941921875,3.217929171875,12.2373921875,3.6752821718749997L12.1544921875,3.743224171875C13.2038921875,4.444546171875,13.8336921875,5.623676171875,13.8329921875,6.885866171875C13.8329921875,7.977926171875,13.3673921875,8.958816171875,12.6270921875,9.649106171875001C14.8079921875,10.632336171875,16.3270921875,12.823816171875,16.3270921875,15.371476171875C16.3270921875,15.633176171875,16.309192187500003,15.890576171875,16.2782921875,16.143776171875L16.2938921875,16.142076171875C17.0582921875,16.053176171875002,18.1535921875,15.884076171875,19.0376921875,15.578476171875C19.5959921875,15.364376171875,19.8791921875,15.013776171875,19.8791921875,14.536776171875C19.8791921875,11.809106171875,17.9394921875,9.526456171875001,15.3670921875,8.994986171875Z" fill="#BAC3CD" fill-opacity="1" style="mix-blend-mode:passthrough"/></g></g></svg>