<svg xmlns="http://www.w3.org/2000/svg" xmlns:xlink="http://www.w3.org/1999/xlink" fill="none" version="1.1" width="40" height="40" viewBox="0 0 40 40"><g><g transform="matrix(-1,0,0,1,72.001953125,0)"><path d="M50.2381765625,8.551796913146973L40.0009765625,8.551796913146973C37.7918365625,8.551796913146973,36.0009765625,10.342656913146973,36.0009765625,12.551796913146973L36.0009765625,29.414396913146973C36.0009765625,31.623496913146973,37.7918365625,33.41439691314697,40.0009765625,33.41439691314697L50.2381765625,33.41439691314697C50.7466765625,33.41439691314697,51.1195765625,33.00849691314697,51.1195765625,32.53489691314697L51.1195765625,9.465115913146972C51.1195765625,8.957716913146973,50.7466765625,8.551796913146973,50.2381765625,8.551796913146973Z" fill="#FF9A97" fill-opacity="1" style="mix-blend-mode:passthrough"/></g><g transform="matrix(-1,0,0,1,66.005859375,0)"><path d="M44.1973296875,23.68167C43.2223296875,23.609450000000002,42.2834896875,23.24834,41.525149687500004,22.59834C40.044599687499996,22.92334,38.6362596875,23.392780000000002,37.2279296875,23.97056C36.1084896875,25.956699999999998,35.0612596875,26.9678,34.1584896875,26.9678C33.9779296875,26.9678,33.7612626875,26.9317,33.6168186875,26.8233C33.2195966875,26.6428,33.0029296875,26.2456,33.0029296875,25.848300000000002C33.0029296875,25.5233,33.0751518875,24.6206,36.5057096875,23.14001C37.3001496875,21.69556,37.9140396875,20.21501,38.419599687499996,18.66223C37.9862596875,17.795560000000002,37.0473696875,15.66501,37.6973696875,14.581673C37.9140396875,14.184451,38.3473696875,13.9677847,38.8168196875,14.00389582C39.1779296875,14.00389582,39.5390396875,14.184451,39.7557096875,14.47334C40.2251496875,15.12334,40.1890396875,16.49556,39.5751496875,18.517789999999998C40.1529296875,19.60112,40.9112596875,20.57612,41.8140396875,21.40667C42.5723696875,21.26223,43.330729687499996,21.1539,44.0890296875,21.1539C45.7862296875,21.19001,46.0390296875,21.98445,46.0029296875,22.4539C46.0029296875,23.68167,44.8112296875,23.68167,44.1973296875,23.68167ZM34.0862596875,25.9206L34.1945996875,25.8845C34.7001496875,25.7039,35.0973696875,25.3428,35.3862596875,24.8733C34.8445996875,25.09,34.4112596875,25.4511,34.0862596875,25.9206ZM38.8890396875,15.08723L38.7807096875,15.08723C38.7445996875,15.08723,38.6723696875,15.08723,38.6362596875,15.12334C38.4918196875,15.73723,38.6001496875,16.38723,38.8529296875,16.96501C39.0695996875,16.35112,39.0695996875,15.70112,38.8890396875,15.08723ZM39.1418196875,20.32334L39.1057096875,20.39556L39.0695996875,20.35945C38.7445996875,21.19001,38.3834796875,22.02056,37.9862596875,22.81501L38.0584796875,22.7789L38.0584796875,22.85112C38.8529296875,22.56223,39.7195996875,22.30945,40.5140396875,22.1289L40.4779296875,22.092779999999998L40.586259687500004,22.092779999999998C40.044599687499996,21.55112,39.5390396875,20.93723,39.1418196875,20.32334ZM44.0529296875,22.23723C43.7279296875,22.23723,43.439029687499996,22.23723,43.1140296875,22.30945C43.4751296875,22.490009999999998,43.8362296875,22.56223,44.1973296875,22.59834C44.4501296875,22.63445,44.7029296875,22.59834,44.9196296875,22.52612C44.9196296875,22.41778,44.7751296875,22.23723,44.0529296875,22.23723Z" fill="#FFFFFF" fill-opacity="1" style="mix-blend-mode:passthrough"/></g><g><path d="M17.9307,36.097300000000004L7.25275,34.0667C5.36558,33.707899999999995,4,32.0582,4,30.1372L4,11.86284C4,9.94184,5.36558,8.29212,7.25275,7.93325L17.9307,5.902739C20.3952,5.434075,22.6779,7.323589999999999,22.6779,9.83232L22.6779,32.167699999999996C22.6779,34.6764,20.3952,36.5659,17.9307,36.097300000000004" fill="#F54A45" fill-opacity="1" style="mix-blend-mode:passthrough"/></g><g><path d="M6.00507789,24.41092C6.0152332,24.35473,6.0291967,24.30096,6.0476032,24.2512L6.109169,24.08186C6.170565,23.90623,6.219007,23.72381,6.253882,23.536920000000002L6.39923,22.78411C6.476074,22.38364,6.555415,21.98395,6.637245,21.58507C6.677231,21.39406,6.7248339999999995,21.19422,6.780688,20.98555L6.955232,20.33868L7.1393,19.65249C7.2015,19.41814,7.25735,19.17416,7.30686,18.92375C7.3097,18.91152,7.31099,18.89878,7.31067,18.88603C7.31067,18.86115,7.30432,18.8451,7.29226,18.83868C7.2802,18.83226,7.2637,18.82905,7.24402,18.82905C7.18182,18.82905,7.1304099999999995,18.81701,7.08979,18.79374C7.01595,18.75382,6.961524,18.67189,6.943172,18.57303C6.916847,18.41184,6.925399,18.24465,6.967926,18.08908C6.993949,18.00642,7.02759,17.941411,7.0682100000000005,17.896468C7.10883,17.851524,7.1539,17.817816,7.20213,17.797752C7.25037,17.777689,7.29734,17.760834,7.3436699999999995,17.747993C7.39001,17.735153,7.42999,17.722311,7.46427,17.707864999999998C7.49854,17.693419,7.52393,17.667737,7.53853,17.630016C7.56328,17.564206,7.58613,17.494383,7.60707,17.420546C7.62802,17.346709,7.65468,17.278491,7.68705,17.21589C7.7194199999999995,17.15329,7.75877,17.101123,7.80637,17.060995C7.85398,17.0208669,7.91554,17,7.99234,17C8.04693,17,8.09516,17.0184592,8.13769,17.0561797C8.18021,17.0939002,8.21639,17.140449,8.247489999999999,17.197431C8.27859,17.254413,8.305250000000001,17.314606,8.32747,17.378812L8.387129999999999,17.555378C8.75113,17.566673,9.11404,17.610657,9.47311,17.686998C9.65908,17.73114,9.84568,17.79695,10.03292,17.884431C10.22016,17.971911,10.38899,18.08588,10.53878,18.22552C10.68857,18.36517,10.81171,18.5297,10.90691,18.7191C11.00212,18.90851,11.05035,19.126,11.05035,19.37079C11.05035,19.49599,11.03893,19.626,11.01672,19.76083L10.99069,19.92536C10.97102,20.05698,10.92913,20.17897,10.86629,20.29214C10.80345,20.4053,10.731729999999999,20.50722,10.65239,20.59791C10.431519999999999,20.85474,10.189689999999999,21.07063,9.926919999999999,21.24478C9.664159999999999,21.41894,9.38996,21.56501,9.10498,21.68459C8.82,21.80417,8.52867,21.90369,8.23099,21.98555C7.9333100000000005,22.06742,7.63945,22.14366,7.34938,22.21589L7.24529,22.23435C7.1881699999999995,22.24398,7.15453,22.27047,7.14501,22.314610000000002C7.0954999999999995,22.5313,7.05615,22.72071,7.02759,22.88363C6.999027,23.04655,6.9723690000000005,23.20225,6.947615,23.35153L6.873355,23.798560000000002C6.848601,23.94783,6.817501,24.11316,6.780688,24.294539999999998C6.767994,24.35393,6.745779,24.42456,6.714044,24.50642C6.682309,24.58828,6.643592,24.66453,6.598528,24.73676C6.553463,24.80899,6.502687,24.87079,6.444294,24.922150000000002C6.385901,24.97352,6.324969,25,6.260229,25C6.2158,25,6.177083,24.98395,6.144713,24.95265C6.112343,24.92135,6.0856854,24.88122,6.06474,24.83307C6.0437945,24.78491,6.0272921,24.73194,6.0165024,24.67576C6.00571275,24.61958,6,24.56581,6,24.51605L6,24.46228C6,24.44542,6,24.42696,6.00507789,24.41092ZM7.4814,20.93579L7.46109,21.01846C7.44451,21.08503,7.43032,21.15251,7.41857,21.22071C7.41448,21.241500000000002,7.41193,21.26272,7.41095,21.28411C7.41095,21.300159999999998,7.41286,21.313,7.41666,21.32424C7.42047,21.33547,7.42872,21.34109,7.44078,21.34109C7.4483999999999995,21.34109,7.4718800000000005,21.33708,7.51123,21.32905C7.55059,21.32103,7.59882,21.31139,7.65468,21.29855C7.71053,21.28571,7.77083,21.27207,7.83493,21.25602C7.89904,21.23997,7.96124,21.224719999999998,8.020900000000001,21.208669999999998C8.38233,21.1065,8.7381,20.9746,9.08594,20.8138C9.2681,20.72953,9.44264,20.63804,9.6083,20.54093C9.77396,20.44382,9.92185,20.34029,10.05069,20.230339999999998C10.187149999999999,20.11396,10.29632,19.99839,10.3782,19.88202C10.46008,19.76565,10.5007,19.64205,10.5007,19.51043C10.5007,19.43178,10.49245,19.36196,10.47658,19.30096C10.460709999999999,19.23997,10.442309999999999,19.183790000000002,10.42263,19.13403C10.34837,18.98074,10.25507,18.85955,10.143989999999999,18.77207C10.03292,18.68459,9.911059999999999,18.61878,9.77967,18.57464C9.64829,18.5305,9.51056,18.50241,9.36711,18.49037C9.22367,18.47833,9.08213,18.47191,8.94313,18.47191C8.90568,18.47191,8.84983,18.47512,8.77366,18.48154C8.6975,18.48796,8.6188,18.49599,8.53565,18.50481C8.4525,18.51364,8.3757,18.52568,8.305250000000001,18.54013C8.2348,18.55457,8.18656,18.570619999999998,8.16181,18.58989C8.14911,18.59952,8.13896,18.61477,8.13007,18.63724C8.12119,18.65971,8.114840000000001,18.67817,8.10976,18.69342L8.02788,18.954250000000002C7.99298,19.06501,7.95616,19.19021,7.91618,19.32825C7.87619,19.46629,7.83493,19.61236,7.79177,19.76565C7.74861,19.91894,7.70672,20.069020000000002,7.66737,20.21509L7.55757,20.6244C7.5296400000000006,20.72717,7.50424,20.83102,7.4814,20.93579ZM10.83582,23.92696C10.95007,23.823430000000002,11.06559,23.75842,11.18364,23.73194C11.3017,23.705460000000002,11.4261,23.683790000000002,11.55748,23.66854L12.48733,18.90931L12.40355,18.9069C12.35785,18.90529,12.30707,18.90048,12.25122,18.89245C12.19536,18.884430000000002,12.140139999999999,18.87159,12.085560000000001,18.85233C12.03097,18.83306,11.99035,18.80658,11.963059999999999,18.77207C11.9259,18.70717,11.892389999999999,18.63905,11.86278,18.56822C11.84564,18.52648,11.83041,18.48314,11.818349999999999,18.439C11.80629,18.39486,11.79994,18.35152,11.79994,18.30738C11.79994,18.23515,11.82406,18.17496,11.8723,18.126C11.920539999999999,18.07705,11.9802,18.03852,12.050650000000001,18.00883C12.1211,17.979132,12.19727,17.958265,12.27915,17.945425C12.36102,17.932584,12.435279999999999,17.926965,12.502559999999999,17.926965C12.81484,17.926965,13.10426,17.939004,13.370840000000001,17.962278C13.637419999999999,17.985553,13.886849999999999,18.03692,14.11852,18.11477C14.35019,18.19261,14.56853,18.30417,14.7729,18.44863C14.97728,18.5931,15.17277,18.78571,15.35874,19.02729C15.42792,19.11798,15.49457,19.2199,15.5574,19.33307C15.69137,19.57355,15.78807,19.843980000000002,15.84238,20.130020000000002C15.87221,20.2817,15.88681,20.44302,15.88681,20.61236C15.88621,20.79522,15.8724,20.97762,15.84556,21.1573C15.7228,21.80599,15.46077,22.39922,15.08835,22.87159C14.91571,23.08989,14.72721,23.278489999999998,14.52093,23.438200000000002C14.31465,23.59791,14.10202,23.737560000000002,13.88114,23.85634C13.66027,23.97512,13.436209999999999,24.07865,13.20772,24.16693C12.979230000000001,24.25522,12.75771,24.33307,12.54191,24.40209L12.54572,24.40209C12.44925,24.43981,12.34516,24.47271,12.233450000000001,24.500799999999998C12.121739999999999,24.5289,12.008759999999999,24.55217,11.895150000000001,24.57143C11.78154,24.590690000000002,11.667919999999999,24.60514,11.55495,24.61637C11.441970000000001,24.62761,11.33597,24.63323,11.23696,24.63323C11.127790000000001,24.63323,11.03639,24.6244,10.961500000000001,24.60755C10.8866,24.590690000000002,10.82694,24.56662,10.78124,24.536920000000002C10.73554,24.50723,10.702539999999999,24.47352,10.68286,24.4358C10.66319,24.39808,10.653030000000001,24.35714,10.653030000000001,24.31381C10.653030000000001,24.25121,10.66699,24.1862,10.69556,24.11878C10.72412,24.05137,10.77172,23.98636,10.83582,23.92696ZM12.472100000000001,22.57704L12.37943,23.070619999999998C12.34769,23.23997,12.31596,23.406100000000002,12.286760000000001,23.569020000000002L12.37245,23.545740000000002C12.55531,23.49157,12.73653,23.42893,12.91575,23.35794C13.1939,23.250709999999998,13.46457,23.11461,13.725,22.95104C14.03363,22.76122,14.32374,22.52663,14.58947,22.252C14.7234,22.11396,14.84082,21.96629,14.943,21.807380000000002C15.04519,21.64847,15.1258,21.48314,15.18673,21.30899C15.24766,21.13483,15.27813,20.954250000000002,15.27813,20.76565C15.27813,20.57464,15.2483,20.39326,15.18864,20.22231C15.12897,20.05136,15.049,19.89326,14.94872,19.74719C14.84843,19.60112,14.73165,19.47111,14.59899,19.35714C14.46634,19.24318,14.32671,19.14607,14.18326,19.0642C14.03982,18.98234,13.89384,18.92054,13.74658,18.87881C13.59933,18.83708,13.4597,18.81541,13.32831,18.81541C13.14234,19.42375,12.98367,20.04093,12.85228,20.66854C12.7209,21.29615,12.59396,21.930979999999998,12.472100000000001,22.57704ZM18.1254,19.552970000000002C18.1057,19.59069,18.080399999999997,19.6557,18.049300000000002,19.74799C18.0182,19.84029,17.985799999999998,19.947029999999998,17.9528,20.06741C17.919800000000002,20.1878,17.8861,20.316209999999998,17.8525,20.45104C17.8189,20.58587,17.7878,20.71188,17.7598,20.82985C17.7319,20.94783,17.7071,21.05056,17.6875,21.14045C17.6678,21.230330000000002,17.655099999999997,21.28892,17.65,21.31701C17.6449,21.35152,17.6361,21.40289,17.6221,21.47191L17.5866,21.65088C17.8646,21.5321,18.1387,21.43338,18.4104,21.35473C18.732799999999997,21.26098,19.0637,21.22318,19.394199999999998,21.24237C19.464,21.24558,19.5319,21.25762,19.598599999999998,21.27769C19.6652,21.29775,19.723,21.32985,19.7712,21.37399C19.8194,21.41814,19.843600000000002,21.48074,19.843600000000002,21.561790000000002L19.8398,21.62038C19.831200000000003,21.71603,19.8037,21.8074,19.7598,21.886029999999998C19.7336,21.9334,19.6966,21.96952,19.6538,21.98956C19.6265,21.98635,19.599800000000002,21.98475,19.5738,21.98475L19.4938,21.98475C19.317999999999998,21.98475,19.140900000000002,22.00401,18.963900000000002,22.04334C18.7868,22.08266,18.607799999999997,22.13563,18.4282,22.20305C18.2485,22.27046,18.0696,22.35072,17.8906,22.44301C17.7116,22.53531,17.5339,22.63322,17.3555,22.73675L16.979799999999997,24.79213C16.9747,24.845100000000002,16.9544,24.893259999999998,16.9182,24.93579C16.881999999999998,24.97833,16.847099999999998,24.99919,16.8122,24.99919L16.7227,24.99919C16.6288,24.99919,16.5634,24.95024,16.5272,24.85313C16.491,24.75602,16.473300000000002,24.63082,16.473300000000002,24.47672C16.473300000000002,24.348309999999998,16.4822,24.20786,16.499299999999998,24.05618C16.5164,23.90449,16.5367,23.75602,16.558999999999997,23.61155L16.6186,23.21669C16.636400000000002,23.09791,16.6446,23.00642,16.6446,22.94382C16.614800000000002,22.89085,16.585,22.83387,16.5552,22.77448C16.5253,22.71508,16.5107,22.64125,16.5107,22.55377C16.5107,22.41573,16.5393,22.30577,16.5964,22.224719999999998C16.6535,22.14366,16.729100000000003,22.0634,16.823,21.98475C16.833199999999998,21.97512,16.8433,21.95826,16.8547,21.93338C16.8662,21.9085,16.875700000000002,21.88041,16.8846,21.84911C16.8935,21.81781,16.900399999999998,21.78651,16.9068,21.755209999999998L16.923299999999998,21.67496L17.0756,20.97913C17.1983,20.40541,17.3316,19.83543,17.4755,19.269660000000002L17.573900000000002,18.89085C17.584,18.84991,17.6005,18.79213,17.624000000000002,18.71669C17.6475,18.64125,17.676000000000002,18.56741,17.709699999999998,18.49598C17.743299999999998,18.42455,17.7808,18.36115,17.8233,18.30818C17.8658,18.255209999999998,17.9115,18.22792,17.961,18.22792C18.072699999999998,18.22792,18.148899999999998,18.23996,18.189500000000002,18.26324C18.2301,18.28651,18.2568,18.31701,18.2695,18.35473L18.3031,18.45826C18.3431,18.45184,18.399,18.4406,18.4726,18.42295C18.5462,18.40529,18.6211,18.38603,18.699199999999998,18.36436C18.7773,18.34269,18.849600000000002,18.32102,18.9169,18.30096C18.9842,18.28089,19.032400000000003,18.26404,19.0622,18.2512C19.2285,18.19502,19.3809,18.14606,19.5199,18.10513C19.6589,18.0642,19.7902,18.03049,19.914,18.00401C20.0378,17.977524,20.1571,17.957459,20.2714,17.945421C20.3856,17.933383,20.500500000000002,17.926962,20.6173,17.926962C20.6719,17.926962,20.7226,17.930171,20.7696,17.936592C20.8166,17.943013,20.8572,17.954249,20.8902,17.971905C20.9232,17.989561,20.950499999999998,18.01444,20.9702,18.04735C20.989800000000002,18.08025,21,18.12359,21,18.17656C20.9962,18.25993,20.9745,18.34041,20.9372,18.4093C20.882199999999997,18.51252,20.7982,18.58541,20.7023,18.61316C20.685200000000002,18.61958,20.6541,18.62841,20.6097,18.638840000000002L20.455399999999997,18.67415L20.2695,18.71428L20.0816,18.75441C19.9876,18.7825,19.8816,18.813,19.7636,18.8459C19.6455,18.87881,19.523,18.91572,19.3955,18.95665C19.267899999999997,18.99758,19.139699999999998,19.04092,19.0108,19.08828C18.881999999999998,19.13563,18.7601,19.18378,18.6465,19.23434C18.532899999999998,19.28491,18.4301,19.33627,18.3399,19.38924C18.2498,19.44221,18.177500000000002,19.49678,18.1254,19.552970000000002Z" fill="#FFFFFF" fill-opacity="1" style="mix-blend-mode:passthrough"/></g></g></svg>