<svg xmlns="http://www.w3.org/2000/svg" xmlns:xlink="http://www.w3.org/1999/xlink" fill="none" version="1.1" width="40" height="40" viewBox="0 0 40 40"><defs><linearGradient x1="0.5" y1="0" x2="0.5" y2="1" id="master_svg0_12_04296"><stop offset="0%" stop-color="#FFC053" stop-opacity="1"/><stop offset="100%" stop-color="#FF9A97" stop-opacity="1"/></linearGradient><linearGradient x1="0.5" y1="0" x2="0.5" y2="1" id="master_svg1_12_04034"><stop offset="0%" stop-color="#F54A45" stop-opacity="1"/><stop offset="100%" stop-color="#FFE434" stop-opacity="1"/></linearGradient></defs><g><g transform="matrix(-1,0,0,1,74.001953125,0)"><path d="M51.2381765625,7.551796913146973L41.0009765625,7.551796913146973C38.7918365625,7.551796913146973,37.0009765625,9.342656913146973,37.0009765625,11.551796913146973L37.0009765625,28.414396913146973C37.0009765625,30.623496913146973,38.7918365625,32.41439691314697,41.0009765625,32.41439691314697L51.2381765625,32.41439691314697C51.7466765625,32.41439691314697,52.1195765625,32.00849691314697,52.1195765625,31.534896913146973L52.1195765625,8.465115913146972C52.1195765625,7.957716913146973,51.7466765625,7.551796913146973,51.2381765625,7.551796913146973Z" fill="url(#master_svg0_12_04296)" fill-opacity="1" style="mix-blend-mode:passthrough"/></g><g><path d="M21.000017166137695,24.43131722869873L33.474517166137694,24.43131722869873L33.474517166137694,26.19031722869873L21.000017166137695,26.19031722869873L21.000017166137695,24.43131722869873ZM21.000017166137695,27.98311722869873L33.474517166137694,27.98311722869873L33.474517166137694,29.77591722869873L21.000017166137695,29.77591722869873L21.000017166137695,27.98311722869873ZM26.355937166137696,12.01691722869873C23.406787166137697,12.01691722869873,21.000018459247695,14.41860722869873,21.000018459247695,17.36152722869873C21.000017166137695,20.30444722869873,23.406787166137697,22.70611722869873,26.355937166137696,22.70611722869873C29.305077166137693,22.70611722869873,31.711817166137696,20.30444722869873,31.711817166137696,17.36152722869873L26.355937166137696,17.36152722869873L26.355937166137696,12.01691722869873Z" fill="#FFFFFF" fill-opacity="0.5600000023841858" style="mix-blend-mode:passthrough"/></g><g><path d="M28.118640899658203,10.224088668823242L28.118640899658203,15.568698668823242L33.4745608996582,15.568698668823242C33.4745608996582,12.625778668823243,31.067790899658203,10.224089314015242,28.118640899658203,10.224088668823242Z" fill="#FFFFFF" fill-opacity="0.5600000023841858" style="mix-blend-mode:passthrough"/></g><g><path d="M18.9307,35.097300000000004L8.252749999999999,33.0667C6.36558,32.707899999999995,5,31.0582,5,29.1372L5,10.86284C5,8.94184,6.36558,7.292120000000001,8.252749999999999,6.93325L18.9307,4.902739C21.3952,4.434075,23.6779,6.323589999999999,23.6779,8.83232L23.6779,31.1677C23.6779,33.6764,21.3952,35.5659,18.9307,35.097300000000004" fill="url(#master_svg1_12_04034)" fill-opacity="1" style="mix-blend-mode:passthrough"/></g><g><path d="M14.859919999999999,14L11,14L11,26L13.396889999999999,26L13.396889999999999,21.86667L14.64202,21.86667C15.980540000000001,21.86667,17.03891,21.5,17.81712,20.73333C18.59533,20,19,19,19,17.8C19,15.26667,17.59922,14,14.859919999999999,14ZM14.42412,19.8L13.396889999999999,19.8L13.396889999999999,16.06667L14.42412,16.06667C15.73152,16.06667,16.38521,16.66667,16.38521,17.9C16.38521,19.2,15.73152,19.8,14.42412,19.8Z" fill="#FFFFFF" fill-opacity="1" style="mix-blend-mode:passthrough"/></g></g></svg>