<svg xmlns="http://www.w3.org/2000/svg" xmlns:xlink="http://www.w3.org/1999/xlink" fill="none" version="1.1" width="20" height="20" viewBox="0 0 20 20"><g><g><path d="M13.73827,12.96193C13.73827,12.96193,15.9196,15.1436,15.9196,15.1436C15.9711,15.1951,16,15.2648,16,15.3376C16,15.4103,15.9711,15.4802,15.9196,15.5316C15.9196,15.5316,15.5316,15.9196,15.5316,15.9196C15.4802,15.9711,15.4103,16,15.3376,16C15.2648,16,15.1951,15.9711,15.1436,15.9196C15.1436,15.9196,12.96192,13.73795,12.96192,13.73795C11.9826,14.5409,10.75488,14.9789,9.4885,14.977C6.4572,14.977,4,12.51983,4,9.4885C4,6.4572,6.4572,4,9.4885,4C12.51982,4,14.977,6.4572,14.977,9.4885C14.977,10.80657,14.5124,12.01595,13.73827,12.96193C13.73827,12.96193,13.73827,12.96193,13.73827,12.96193ZM9.4885,13.8793C11.913599999999999,13.8793,13.8793,11.91359,13.8793,9.4885C13.8793,7.06341,11.913599999999999,5.0977,9.4885,5.0977C7.06341,5.0977,5.0977,7.06341,5.0977,9.4885C5.0977,11.91359,7.06341,13.8793,9.4885,13.8793C9.4885,13.8793,9.4885,13.8793,9.4885,13.8793Z" fill="#8F959E" fill-opacity="1"/></g></g></svg>