<svg xmlns="http://www.w3.org/2000/svg" xmlns:xlink="http://www.w3.org/1999/xlink" fill="none" version="1.1" width="20" height="20" viewBox="0 0 20 20"><g><g><path d="M16.4681,4.32416L11.53678,1.391063C10.57657,0.869646,9.42878,0.869646,8.46857,1.391063L3.5367800000000003,4.32416C2.6192349999999998,4.9208099999999995,2.0447061,5.94425,2,7.06171L2,12.9329C2.0433831,14.0521,2.618043,15.0776,3.5367800000000003,15.6755L8.46857,18.6086C8.9377,18.8732,9.46532,19.0079,10,18.9996C10.53637,19.0078,11.06571,18.8731,11.53678,18.6086L16.4681,15.6755C17.3858,15.0773,17.9588,14.0515,18,12.9329L18,7.06171C17.9575,5.94489,17.3846,4.92116,16.4681,4.32416ZM9.936779999999999,12.5719C8.51792,12.5719,7.36703,11.3874,7.36462,9.92461C7.36703,8.46181,8.51792,7.2773,9.936779999999999,7.2773C11.35404,7.27951,12.5024,8.463460000000001,12.5046,9.92461C12.5024,11.3858,11.35404,12.5697,9.936779999999999,12.5719Z" fill="#B8B8B8" fill-opacity="1" style="mix-blend-mode:passthrough"/></g></g></svg>