<svg xmlns="http://www.w3.org/2000/svg" xmlns:xlink="http://www.w3.org/1999/xlink" fill="none" version="1.1" width="14" height="14" viewBox="0 0 14 14"><defs><clipPath id="master_svg0_61_29569"><rect x="0" y="0" width="14" height="14" rx="0"/></clipPath></defs><g><g clip-path="url(#master_svg0_61_29569)"><g style="opacity:0.009999999776482582;"><path d="M0,0L14,0L14,14L0,14L0,0Z" fill="#202425" fill-opacity="1" style="mix-blend-mode:passthrough"/></g><g><path d="M8.110905468750001,1.00475256640625C7.41770546875,0.62935656640625,6.58183546875,0.62935656640625,5.88863546875,1.00475256640625L2.15530546875,3.02681556640625C1.4022294687499999,3.43477556640625,0.933105602264,4.2222055664062506,0.93310546875,5.07828556640625L0.93310546875,8.92175556640625C0.93322276075,9.77803556640625,1.40234646875,10.56545556640625,2.15530546875,10.97320556640625L5.88863546875,12.99530556640625C6.58183546875,13.37070556640625,7.41770546875,13.37070556640625,8.110905468750001,12.99530556640625L11.84420546875,10.97320556640625C12.59730546875,10.56526556640625,13.06640546875,9.77783556640625,13.06640546875,8.92175556640625L13.06640546875,5.07828556640625C13.06630546875,4.22200556640625,12.59720546875,3.43457556640625,11.84420546875,3.02681556640625L8.110905468750001,1.00475256640625ZM6.33290546875,1.82515556640625C6.74892546875,1.5997805664062499,7.25062546875,1.5997805664062499,7.66663546875,1.82515556640625L11.40000546875,3.84768556640625C11.85160546875,4.09234556640625,12.13300546875,4.56465556640625,12.13310546875,5.07828556640625L12.13310546875,8.92175556640625C12.13300546875,9.43538556640625,11.85160546875,9.90769556640625,11.40000546875,10.15235556640625L7.66663546875,12.17490556640625C7.25062546875,12.40030556640625,6.74892546875,12.40030556640625,6.33290546875,12.17490556640625L2.59957546875,10.15235556640625C2.14795546875,9.90769556640625,1.86657546875,9.43538556640625,1.86643846875,8.92175556640625L1.86643846875,5.07828556640625C1.86657446875,4.56465556640625,2.14795546875,4.09234556640625,2.59957546875,3.84768556640625L6.33290546875,1.82515556640625ZM5.13310546875,7.00001556640625C5.13310546875,5.96908556640625,5.96884546875,5.13335556640625,6.99977546875,5.13335556640625C8.03070546875,5.13335556640625,8.86643546875,5.96908556640625,8.86643546875,7.00001556640625C8.86643546875,8.030945566406249,8.03070546875,8.86668556640625,6.99977546875,8.86668556640625C5.96884546875,8.86668556640625,5.13310546875,8.030945566406249,5.13310546875,7.00001556640625ZM6.99977546875,4.20001556640625C5.45337546875,4.20001556640625,4.1997754687499995,5.45362556640625,4.1997754687499995,7.00001556640625C4.1997754687499995,8.54641556640625,5.45337546875,9.80001556640625,6.99977546875,9.80001556640625C8.54616546875,9.80001556640625,9.79977546875,8.54641556640625,9.79977546875,7.00001556640625C9.79977546875,5.45362556640625,8.54616546875,4.20001556640625,6.99977546875,4.20001556640625Z" fill="#202425" fill-opacity="1" style="mix-blend-mode:passthrough"/></g></g></g></svg>