<svg xmlns="http://www.w3.org/2000/svg" xmlns:xlink="http://www.w3.org/1999/xlink" fill="none" version="1.1" width="96" height="96" viewBox="0 0 96 96"><g><g><ellipse cx="48" cy="48" rx="48" ry="48" fill="#00D079" fill-opacity="1"/></g><g><path d="M69.47489999999999,38.47487Q69.71860000000001,38.23112,69.9101,37.9445Q70.1017,37.65787,70.2336,37.33939Q70.3655,37.02091,70.4327,36.682816Q70.5,36.34472,70.5,36Q70.5,35.828056,70.4832,35.65694Q70.46629999999999,35.485824,70.4327,35.317184Q70.39920000000001,35.148544,70.3493,34.984Q70.29939999999999,34.81946,70.2336,34.66061Q70.1678,34.50175,70.08670000000001,34.35011Q70.00569999999999,34.19847,69.9101,34.0555Q69.8146,33.91254,69.7055,33.77962Q69.59649999999999,33.64671,69.47489999999999,33.52513Q69.35329999999999,33.40354,69.2204,33.29446Q69.0875,33.18538,68.9445,33.08986Q68.8015,32.99433,68.6499,32.91328Q68.4982,32.83222,68.3394,32.76642Q68.1805,32.70062,68.01599999999999,32.650710000000004Q67.8515,32.6008,67.6828,32.56725Q67.5142,32.53371,67.34309999999999,32.51685Q67.1719,32.5,67,32.5Q66.6553,32.5,66.3172,32.56725Q65.9791,32.6345,65.6606,32.76642Q65.3421,32.89834,65.0555,33.08986Q64.7689,33.28137,64.52510000000001,33.52513L64.5235,33.52676L43.3587,54.6916L32.32572,44.884460000000004L32.32527,44.88407Q32.08701,44.67228,31.81441,44.50702Q31.541809999999998,44.34176,31.24383,44.22847Q30.945858,44.11518,30.632321,44.05759Q30.318783,44,30,44Q29.828056,44,29.65694,44.01685Q29.485824,44.03371,29.317184,44.06725Q29.148544,44.1008,28.984,44.150710000000004Q28.81946,44.20062,28.66061,44.26642Q28.50175,44.33222,28.35011,44.41328Q28.19847,44.49433,28.0555,44.58986Q27.91254,44.68538,27.77962,44.79446Q27.64671,44.90354,27.52513,45.025130000000004Q27.40354,45.14671,27.29446,45.27962Q27.18538,45.41254,27.08986,45.5555Q26.99433,45.69847,26.91328,45.85011Q26.83222,46.0018,26.76642,46.1606Q26.70062,46.3195,26.65071,46.484Q26.6008,46.6485,26.56725,46.8172Q26.53371,46.9858,26.516849999999998,47.1569Q26.5,47.3281,26.5,47.5Q26.5,47.8707,26.57765,48.2332Q26.6553,48.5956,26.80716,48.9338Q26.95902,49.272,27.17834,49.5708Q27.39767,49.8697,27.67473,50.115899999999996L27.67517,50.1163L41.1747,62.115899999999996Q41.2984,62.225899999999996,41.4319,62.3237Q41.5655,62.4215,41.7076,62.5062Q41.8498,62.591,41.9993,62.6619Q42.1488,62.7329,42.3044,62.7894Q42.4599,62.846000000000004,42.6201,62.8876Q42.7803,62.9292,42.9437,62.9555Q43.1071,62.9818,43.2722,62.992599999999996Q43.4374,63.0034,43.6028,62.9985Q43.7682,62.9936,43.9325,62.9732Q44.0967,62.9527,44.2583,62.9169Q44.4199,62.881,44.5773,62.8301Q44.7348,62.7791,44.8867,62.7136Q45.0387,62.647999999999996,45.1838,62.5684Q45.328900000000004,62.4887,45.4658,62.3958Q45.6027,62.302800000000005,45.7303,62.1974Q45.8578,62.091899999999995,45.9749,61.974900000000005L69.47319999999999,38.47651L69.47489999999999,38.47487L69.47489999999999,38.47487Z" fill-rule="evenodd" fill="#FFFFFF" fill-opacity="1"/></g></g></svg>