<svg xmlns="http://www.w3.org/2000/svg" xmlns:xlink="http://www.w3.org/1999/xlink" fill="none" version="1.1" width="32" height="32" viewBox="0 0 32 32"><defs><linearGradient x1="0.5" y1="0" x2="0.5" y2="1" id="master_svg0_12_04560"><stop offset="0%" stop-color="#3686FF" stop-opacity="1"/><stop offset="100%" stop-color="#3651FF" stop-opacity="1"/></linearGradient></defs><g><g transform="matrix(-1,0,0,1,64.001953125,0)"><path d="M46.2381765625,3.5517969131469727L36.0009765625,3.5517969131469727C33.7918365625,3.5517969131469727,32.0009765625,5.342656913146973,32.0009765625,7.551796913146973L32.0009765625,24.414396913146973C32.0009765625,26.623496913146973,33.7918365625,28.414396913146973,36.0009765625,28.414396913146973L46.2381765625,28.414396913146973C46.7466765625,28.414396913146973,47.1195765625,28.008496913146974,47.1195765625,27.534896913146973L47.1195765625,4.465115913146972C47.1195765625,3.9577169131469727,46.7466765625,3.5517969131469727,46.2381765625,3.5517969131469727Z" fill="#ACCDFF" fill-opacity="1" style="mix-blend-mode:passthrough"/></g><g><path d="M17,17L27,17L27,19.30379L17,19.30379L17,17ZM17,21.6519L27,21.6519L27,24L17,24L17,21.6519Z" fill="#FFFFFF" fill-opacity="0.5600000023841858" style="mix-blend-mode:passthrough"/></g><g><path d="M17,8L27,8L27,10.30379L17,10.30379L17,8ZM17,12.651900000000001L27,12.651900000000001L27,15L17,15L17,12.651900000000001Z" fill="#FFFFFF" fill-opacity="0.5600000023841858" style="mix-blend-mode:passthrough"/></g><g><path d="M13.9307,31.0973L3.25275,29.0667C1.36558,28.7079,0,27.0582,0,25.1372L0,6.86284C0,4.94184,1.36558,3.29212,3.25275,2.93325L13.9307,0.902739C16.3952,0.434075,18.6779,2.32359,18.6779,4.83232L18.6779,27.1677C18.6779,29.6764,16.3952,31.5659,13.9307,31.0973" fill="url(#master_svg0_12_04560)" fill-opacity="1" style="mix-blend-mode:passthrough"/></g><g><path d="M10.501000000000001,20L9.522,15.391L9.478,15.391L8.498999999999999,20L5.8260000000000005,20L4.055,12.432L6.585,12.432L7.454000000000001,16.722L7.498,16.722L8.356,12.432L10.754,12.432L11.667,16.722L11.711,16.722L12.525,12.432L14.945,12.432L13.174,20L10.501000000000001,20Z" fill="#FFFFFF" fill-opacity="1"/></g></g></svg>