<?xml version="1.0" standalone="no"?><!DOCTYPE svg PUBLIC "-//W3C//DTD SVG 1.1//EN" "http://www.w3.org/Graphics/SVG/1.1/DTD/svg11.dtd"><svg t="1706498989614" class="icon" viewBox="0 0 1024 1024" version="1.1" xmlns="http://www.w3.org/2000/svg" p-id="2600" xmlns:xlink="http://www.w3.org/1999/xlink" width="200" height="200"><path d="M263.558 314.651a180.105 180.105 0 1 0 180.104-180.105 180.105 180.105 0 0 0-180.104 180.105zM930.328 697.001L794.505 545.424a28.527 28.527 0 0 0-49.816 19.16v63.44H508.38a24.695 24.695 0 0 0-24.695 24.696v127.734a24.695 24.695 0 0 0 24.695 24.695h236.308v63.867a28.527 28.527 0 0 0 49.816 19.16L930.328 736.6a28.527 28.527 0 0 0 0-39.598z" p-id="2601"></path><path d="M704.665 867.739v-23.844H508.381a64.719 64.719 0 0 1-64.719-64.718V651.443a64.719 64.719 0 0 1 64.719-64.719h163.5a356.803 356.803 0 0 0-188.195-53.222 361.061 361.061 0 0 0-353.823 292.51 57.054 57.054 0 0 0 55.777 68.125H710.2a74.511 74.511 0 0 1-5.535-26.398z" p-id="2602"></path></svg>