<svg xmlns="http://www.w3.org/2000/svg" xmlns:xlink="http://www.w3.org/1999/xlink" fill="none" version="1.1" width="18" height="18" viewBox="0 0 18 18"><g><g><path d="M11.772,3.17733C12.1817,4.09798,13.0262,4.731669999999999,14.0006,4.849600000000001L14.5143,4.91176C15.6056,5.04385,16.5227,5.82018,16.8622,6.89952C17.2018,7.97886,16.901699999999998,9.16359,16.094,9.93299L15.7138,10.2951C14.9926,10.98201,14.67,12.0074,14.8625,13.0009L14.964,13.5246C15.1796,14.6374,14.7481,15.7781,13.8591,16.4451C12.9701,17.1122,11.7864,17.1836,10.82829,16.6279L10.37736,16.3664C9.52194,15.8703,8.47806,15.8703,7.62264,16.3664L7.17171,16.6279C6.21358,17.1836,5.02987,17.1122,4.14088,16.4451C3.25188,15.7781,2.82036,14.6374,3.03599,13.5246L3.13747,13.0009C3.32998,12.0074,3.0074,10.98201,2.28621,10.2951L1.906042,9.93299C1.098261,9.1636,0.798212,7.97886,1.137779,6.89952C1.477344,5.82018,2.39436,5.04385,3.48575,4.91176L3.9994,4.849600000000001C4.97379,4.731669999999999,5.81831,4.09798,6.22801,3.17733L6.44398,2.69201C6.90288,1.6608230000000002,7.90114,1,9,1C10.09886,1,11.0971,1.6608230000000002,11.556,2.69201L11.772,3.17733ZM10.49398,3.78397L10.27801,3.29865Q9.90152,2.4526399999999997,9,2.4526399999999997Q8.098469999999999,2.4526399999999997,7.72199,3.29865L7.50602,3.78397Q6.51649,6.00755,4.1631,6.29237L3.64945,6.35453Q2.7540500000000003,6.4629,2.47546,7.34841Q2.19688,8.233920000000001,2.8596,8.86514L3.23977,9.22725Q4.98161,10.88632,4.51665,13.2859L4.41517,13.8097Q4.23827,14.7226,4.9676100000000005,15.2699Q5.69696,15.8172,6.48303,15.3613L6.93396,15.0998Q9,13.9016,11.066,15.0998L11.517,15.3613Q12.303,15.8172,13.0324,15.2699Q13.7617,14.7226,13.5848,13.8097L13.4833,13.2859Q13.0184,10.88632,14.7602,9.22725L15.1404,8.86514Q15.8031,8.233920000000001,15.5245,7.34841Q15.246,6.4629,14.3506,6.35453L13.8369,6.29237Q11.4835,6.00754,10.49398,3.78397Z" fill-rule="evenodd" fill="#000000" fill-opacity="1"/></g></g></svg>