<svg xmlns="http://www.w3.org/2000/svg" xmlns:xlink="http://www.w3.org/1999/xlink" fill="none" version="1.1" width="18" height="18" viewBox="0 0 18 18"><g><g><path d="M3.312787632598877,12.581267154083251C3.312787632598877,12.977847154083252,3.633907632598877,13.300727154083251,4.032247632598877,13.300727154083251L6.806537632598877,13.300727154083251C7.203117632598877,13.300727154083251,7.525987632598877,12.979597154083251,7.525987632598877,12.581267154083251C7.525987632598877,12.184687154083251,7.2048676325988765,11.861807154083252,6.806537632598877,11.861807154083252L4.030487632598877,11.861807154083252C3.633907632598877,11.861807154083252,3.312787632598877,12.182937154083252,3.312787632598877,12.581267154083251ZM15.559347632598877,14.160557154083252L14.841647632598876,14.160557154083252L15.125947632598876,14.160557154083252C15.368047632598877,14.146557154083252,15.559347632598877,13.946457154083252,15.559347632598877,13.700857154083252L15.559347632598877,14.160557154083252ZM2.433647632598877,14.162357154083251L3.151348632598877,14.162357154083251L2.867075632598877,14.162357154083251C2.624917632598877,14.148257154083252,2.433647632598877,13.948257154083253,2.433647632598877,13.702557154083252L2.433647632598877,14.162357154083251ZM15.559347632598877,8.799737154083253L14.841647632598876,8.799737154083253L15.125947632598876,8.799737154083253C15.368047632598877,8.813777154083251,15.559347632598877,9.013817154083252,15.559347632598877,9.259487154083253L15.559347632598877,8.799737154083253ZM14.160747632598877,5.2428171540832516L13.443047632598876,5.2428171540832516L13.727347632598876,5.2428171540832516C13.969547632598877,5.256857154083252,14.160747632598877,5.4568971540832525,14.160747632598877,5.702567154083252L14.160747632598877,5.2428171540832516ZM2.438911942598877,3.437157154083252L3.156613632598877,3.437157154083252L2.8723406325988767,3.437157154083252C2.6301816325988767,3.451195354083252,2.438911942598877,3.651239154083252,2.438911942598877,3.896907154083252L2.438911942598877,3.437157154083252Z" fill="#3686FF" fill-opacity="1" style="mix-blend-mode:passthrough"/></g><g><path d="M15.8541,7.3696L4.03049,7.3696C3.63391,7.3696,3.31103,7.69072,3.31103,8.08905C3.31103,8.48563,3.63216,8.80851,4.03049,8.80851L15.5593,8.80851L15.5593,14.1623L2.43365,14.1623L2.43365,3.43891L7.4751,3.43891L8.39987,4.8673C8.52558,5.09997,8.76887,5.244870000000001,9.03334,5.2445699999999995L14.1555,5.2445699999999995L14.1555,6.3571C14.1555,6.75367,14.4766,7.07655,14.875,7.07655C15.2733,7.07655,15.5944,6.75543,15.5944,6.3571L15.5944,4.897130000000001C15.5383,4.28822,15.0276,3.8126800000000003,14.4047,3.8126800000000003L13.4483,3.8126800000000003L13.4483,3.80917L9.42816,3.80917L8.48234,2.347445L8.47181,2.331652C8.343720000000001,2.133363,8.12086,2,7.86642,2L3.1531,2L3.1531,2.00175477L2.1967499999999998,2.00175477C1.53696,2.00175477,1.00175477,2.53696,1.00175477,3.1967499999999998L1.00175477,3.20553L1,3.20553L1,14.4992C1.0421145,15.0748,1.491336,15.5363,2.0616399999999997,15.5977L15.8717,15.5977C16.4525,15.5714,16.924500000000002,15.1309,17,14.5642L17,8.45054C16.9421,7.85918,16.4543,7.39241,15.8541,7.3696Z" fill="#3686FF" fill-opacity="1" style="mix-blend-mode:passthrough"/></g></g></svg>