<svg xmlns="http://www.w3.org/2000/svg" xmlns:xlink="http://www.w3.org/1999/xlink" fill="none" version="1.1" width="18" height="18" viewBox="0 0 18 18"><g><g><path d="M8.95175,15.0893C8.44994,15.0893,7.92883,15.1665,7.44632,15.0893L3.99156,17L3.99156,13.4487C2.15802,12.1749,1,10.05187,1,7.85163C1,3.99156,4.551270000000001,1,8.95175,1C13.3522,1,16.9035,3.99156,16.9035,7.85163C16.8842,11.7117,13.3329,15.0893,8.95175,15.0893ZM8.95175,2.91074C5.59349,2.91074,2.8914400000000002,5.01448,2.8914400000000002,7.98673C2.8914400000000002,9.80096,4.03016,11.0748,5.57419,12.0398L5.57419,14.4138L7.25332,13.3908C7.71653,13.4873,8.43064,13.3908,8.93245,13.3908C12.2714,13.3908,14.9928,10.90109,14.9928,7.92883C14.9928,4.9758700000000005,12.2907,2.91074,8.95175,2.91074ZM12.4837,9.00965C12.0012,9.00965,11.5959,8.60434,11.5959,8.12183C11.5959,7.63933,12.0012,7.23402,12.4837,7.23402C12.9662,7.23402,13.3715,7.63933,13.3715,8.12183C13.3715,8.60434,12.9662,9.00965,12.4837,9.00965ZM8.95175,9.00965C8.46924,9.00965,8.08323,8.60434,8.08323,8.12183C8.08323,7.63933,8.46924,7.23402,8.95175,7.23402C9.43426,7.23402,9.82027,7.63933,9.82027,8.12183C9.82027,8.60434,9.43426,9.00965,8.95175,9.00965ZM5.40048,9.00965C4.91797,9.00965,4.51267,8.60434,4.51267,8.12183C4.51267,7.63933,4.91797,7.23402,5.40048,7.23402C5.88299,7.23402,6.2883,7.63933,6.2883,8.12183C6.2883,8.60434,5.90229,9.00965,5.40048,9.00965Z" fill="#272636" fill-opacity="1" style="mix-blend-mode:passthrough"/></g></g></svg>