<svg xmlns="http://www.w3.org/2000/svg" xmlns:xlink="http://www.w3.org/1999/xlink" fill="none" version="1.1" width="18" height="18" viewBox="0 0 18 18"><g><g><path d="M9,1C4.58125,1,1,4.58125,1,9C1,13.4187,4.58125,17,9,17C13.4187,17,17,13.4187,17,9C17,4.58125,13.4187,1,9,1ZM9,16C5.14062,16,2,12.8594,2,9C2,5.14062,5.14062,2,9,2C12.8594,2,16,5.14062,16,9C16,12.8594,12.8594,16,9,16Z" fill="#3686FF" fill-opacity="1" style="mix-blend-mode:passthrough"/><path d="M14.8338,14.8338Q17.25,12.4176,17.25,9Q17.25,5.58239,14.8338,3.16619Q12.4176,0.75,9,0.7499990000000001Q5.58239,0.75,3.16619,3.16619Q0.75,5.58239,0.7499990000000001,9Q0.75,12.4176,3.16619,14.8338Q5.58238,17.25,9,17.25Q12.4176,17.25,14.8338,14.8338ZM14.4803,3.51974Q16.75,5.78949,16.75,9Q16.75,12.2105,14.4803,14.4803Q12.2105,16.75,9,16.75Q5.78949,16.75,3.51975,14.4803Q1.25,12.2105,1.249999,9Q1.25,5.78949,3.51974,3.51975Q5.78949,1.25,9,1.249999Q12.2105,1.25,14.4803,3.51974ZM14.124,14.124Q16.25,11.9981,16.25,9Q16.25,6.00191,14.124,3.87596Q11.9981,1.75,9,1.75Q6.00191,1.75,3.87596,3.87596Q1.75,6.00191,1.75,9Q1.75,11.9981,3.87596,14.124Q6.00191,16.25,9,16.25Q11.9981,16.25,14.124,14.124ZM13.7705,4.229509999999999Q15.75,6.20902,15.75,9Q15.75,11.791,13.7705,13.7705Q11.791,15.75,9,15.75Q6.20901,15.75,4.229509999999999,13.7705Q2.25,11.791,2.25,9Q2.25,6.20902,4.229509999999999,4.229509999999999Q6.20902,2.25,9,2.25Q11.791,2.25,13.7705,4.229509999999999Z" fill-rule="evenodd" fill="#3686FF" fill-opacity="1"/></g><g><path d="M7,7.332812786102295Q7,7.431302786102295,6.98079,7.527902786102295Q6.96157,7.624502786102295,6.9238800000000005,7.715492786102295Q6.88619,7.806492786102295,6.8314699999999995,7.888382786102294Q6.77675,7.970272786102295,6.70711,8.039922786102295Q6.63746,8.109562786102295,6.5555699999999995,8.164282786102294Q6.47368,8.219002786102294,6.38268,8.256692786102295Q6.29169,8.294382786102295,6.19509,8.313602786102296Q6.09849,8.332812786102295,6,8.332812786102295Q5.901509,8.332812786102295,5.80491,8.313602786102296Q5.708311,8.294382786102295,5.617316,8.256692786102295Q5.526322,8.219002786102294,5.44443,8.164282786102294Q5.362537,8.109562786102295,5.292893,8.039922786102295Q5.223249,7.970272786102295,5.16853,7.888382786102294Q5.113811,7.806492786102295,5.0761205,7.715492786102295Q5.0384294,7.624502786102295,5.0192147,7.527902786102295Q5,7.431302786102295,5,7.332812786102295Q5,7.234321786102295,5.0192147,7.1377227861022945Q5.0384294,7.041123786102295,5.0761205,6.950128786102295Q5.113811,6.859134786102295,5.16853,6.777242786102295Q5.223249,6.695349786102295,5.292893,6.625705786102295Q5.362537,6.556061786102295,5.44443,6.5013427861022945Q5.526322,6.446623786102295,5.617316,6.408933286102295Q5.708311,6.371242186102295,5.80491,6.352027486102295Q5.901509,6.332812786102295,6,6.332812786102295Q6.09849,6.332812786102295,6.19509,6.352027486102295Q6.29169,6.371242186102295,6.38268,6.408933286102295Q6.47368,6.446623786102295,6.5555699999999995,6.5013427861022945Q6.63746,6.556061786102295,6.70711,6.625705786102295Q6.77675,6.695349786102295,6.8314699999999995,6.777242786102295Q6.88619,6.859134786102295,6.9238800000000005,6.950128786102295Q6.96157,7.041123786102295,6.98079,7.1377227861022945Q7,7.234321786102295,7,7.332812786102295Z" fill="#3686FF" fill-opacity="1" style="mix-blend-mode:passthrough"/></g><g><path d="M13,7.332812786102295Q13,7.431302786102295,12.98079,7.527902786102295Q12.96157,7.624502786102295,12.92388,7.715492786102295Q12.88619,7.806492786102295,12.83147,7.888382786102294Q12.77675,7.970272786102295,12.70711,8.039922786102295Q12.63746,8.109562786102295,12.55557,8.164282786102294Q12.47368,8.219002786102294,12.38268,8.256692786102295Q12.29169,8.294382786102295,12.19509,8.313602786102296Q12.09849,8.332812786102295,12,8.332812786102295Q11.901509,8.332812786102295,11.80491,8.313602786102296Q11.708311,8.294382786102295,11.617316,8.256692786102295Q11.526322,8.219002786102294,11.44443,8.164282786102294Q11.362537,8.109562786102295,11.292893,8.039922786102295Q11.223249,7.970272786102295,11.16853,7.888382786102294Q11.113811,7.806492786102295,11.0761205,7.715492786102295Q11.0384294,7.624502786102295,11.0192147,7.527902786102295Q11,7.431302786102295,11,7.332812786102295Q11,7.234321786102295,11.0192147,7.1377227861022945Q11.0384294,7.041123786102295,11.0761205,6.950128786102295Q11.113811,6.859134786102295,11.16853,6.777242786102295Q11.223249,6.695349786102295,11.292893,6.625705786102295Q11.362537,6.556061786102295,11.44443,6.5013427861022945Q11.526322,6.446623786102295,11.617316,6.408933286102295Q11.708311,6.371242186102295,11.80491,6.352027486102295Q11.901509,6.332812786102295,12,6.332812786102295Q12.09849,6.332812786102295,12.19509,6.352027486102295Q12.29169,6.371242186102295,12.38268,6.408933286102295Q12.47368,6.446623786102295,12.55557,6.5013427861022945Q12.63746,6.556061786102295,12.70711,6.625705786102295Q12.77675,6.695349786102295,12.83147,6.777242786102295Q12.88619,6.859134786102295,12.92388,6.950128786102295Q12.96157,7.041123786102295,12.98079,7.1377227861022945Q13,7.234321786102295,13,7.332812786102295Z" fill="#3686FF" fill-opacity="1" style="mix-blend-mode:passthrough"/></g><g><path d="M8.999997690734864,13.667185381469727C10.840627690734863,13.667185381469727,12.332817690734863,12.175005381469727,12.332817690734863,10.334375381469727L5.667187690734863,10.334375381469727C5.667187690734863,12.175005381469727,7.159377690734863,13.667185381469727,8.999997690734864,13.667185381469727Z" fill="#3686FF" fill-opacity="1" style="mix-blend-mode:passthrough"/></g></g></svg>